<?xml version="1.0" standalone="no"?>
<!DOCTYPE svg PUBLIC "-//W3C//DTD SVG 20010904//EN"
 "http://www.w3.org/TR/2001/REC-SVG-20010904/DTD/svg10.dtd">
<svg version="1.0" xmlns="http://www.w3.org/2000/svg"
 width="1720.000000pt" height="1720.000000pt" viewBox="0 0 1720.000000 1720.000000"
 preserveAspectRatio="xMidYMid meet">
<metadata>
Created by potrace 1.14, written by Peter Selinger 2001-2017
</metadata>
<g transform="translate(0.000000,1720.000000) scale(0.100000,-0.100000)"
fill="#000000" stroke="none">
<path d="M14687 12544 c-2 -2 -28 -7 -58 -9 -68 -7 -137 -17 -204 -30 -89 -17
-237 -61 -330 -98 -44 -17 -82 -30 -84 -28 -2 1 -7 -1 -10 -6 -3 -4 -46 -28
-95 -53 -84 -42 -241 -141 -295 -186 -105 -87 -181 -160 -275 -265 -52 -59
-172 -223 -202 -279 -10 -19 -23 -40 -29 -46 -10 -12 -97 -193 -134 -279 -52
-121 -90 -288 -87 -375 3 -68 23 -150 38 -150 4 0 8 -5 8 -10 0 -44 143 -147
220 -157 62 -9 148 -9 185 -1 22 6 49 11 60 14 62 12 169 76 223 132 50 53
125 174 137 222 46 187 21 314 -77 392 -76 60 -161 85 -313 91 -27 2 -49 5
-48 7 8 27 28 60 35 60 4 0 8 5 8 11 0 10 74 121 106 159 152 180 259 273 459
397 25 16 148 76 200 98 75 32 251 86 330 101 11 2 31 6 45 9 14 2 45 7 70 10
25 4 59 9 75 12 17 3 99 6 184 7 263 4 461 -37 681 -140 44 -21 80 -41 80 -46
0 -4 5 -8 10 -8 27 0 156 -97 253 -190 72 -69 197 -220 197 -239 0 -6 4 -11 8
-11 5 0 15 -12 23 -27 8 -16 16 -30 19 -33 3 -3 21 -36 40 -75 19 -38 39 -73
43 -76 5 -3 8 -9 8 -12 0 -4 8 -26 18 -50 32 -75 71 -187 65 -187 -4 0 -2 -6
4 -12 21 -27 71 -252 96 -433 15 -109 18 -150 21 -270 2 -71 4 -134 5 -140 1
-5 1 -12 0 -15 -6 -15 -4 -73 3 -77 4 -2 4 -9 1 -15 -4 -6 -8 -38 -10 -72 -4
-87 -13 -213 -19 -268 -11 -101 -15 -134 -19 -158 -2 -14 -7 -50 -11 -80 -8
-62 -11 -80 -21 -130 -4 -19 -7 -38 -6 -42 1 -6 -12 -85 -24 -138 -3 -14 -6
-34 -8 -45 -2 -11 -8 -45 -15 -75 -6 -30 -13 -65 -16 -78 -2 -13 -6 -31 -9
-40 -3 -9 -8 -31 -11 -49 -3 -17 -15 -71 -26 -120 -12 -48 -23 -95 -24 -103
-2 -8 -4 -15 -5 -15 -1 0 -3 -9 -4 -20 -5 -33 -78 -309 -87 -325 -8 -17 -9
-14 -30 110 -7 41 -14 80 -15 85 -5 17 -14 54 -18 73 -14 58 -64 191 -106 278
-66 138 -152 263 -251 366 -77 79 -225 198 -247 198 -5 0 -15 7 -22 15 -6 8
-15 14 -18 13 -4 -1 -41 15 -82 34 -68 33 -177 73 -226 82 -10 2 -30 7 -44 10
-102 24 -182 30 -365 31 -216 0 -342 -13 -495 -50 -3 -1 -25 -5 -50 -9 -25 -5
-49 -11 -55 -14 -5 -4 -14 -7 -20 -8 -69 -13 -214 -62 -340 -114 -16 -7 -35
-14 -41 -15 -22 -5 -319 -156 -335 -171 -8 -8 -19 -14 -23 -14 -8 0 -238 -149
-246 -159 -3 -4 -21 -18 -40 -31 -45 -31 -177 -135 -210 -166 -14 -13 -36 -33
-50 -44 -252 -214 -584 -634 -751 -950 -19 -36 -37 -66 -41 -68 -5 -2 -8 -12
-8 -22 0 -9 -7 -23 -15 -30 -8 -6 -14 -15 -13 -18 1 -4 -13 -38 -31 -77 -19
-38 -47 -104 -63 -145 -16 -41 -33 -84 -38 -95 -23 -52 -117 -381 -125 -435
-1 -8 -7 -42 -13 -75 -6 -33 -14 -80 -17 -105 -3 -25 -8 -52 -10 -60 -23 -86
-23 -603 1 -641 2 -4 6 -24 10 -45 5 -35 18 -92 44 -194 27 -105 102 -289 170
-417 143 -268 352 -500 598 -662 35 -22 65 -41 68 -41 2 0 21 -10 42 -23 20
-13 66 -36 102 -51 36 -16 79 -34 95 -42 31 -13 145 -51 180 -59 11 -2 47 -11
80 -19 33 -8 80 -17 105 -21 24 -4 47 -8 50 -10 30 -19 476 -27 605 -11 39 4
84 10 100 11 17 2 31 4 33 5 1 2 11 4 22 5 11 1 21 3 23 5 1 1 11 3 22 4 11 2
36 6 55 11 19 4 44 9 55 11 11 1 31 6 45 12 14 5 27 10 30 10 21 0 158 43 205
63 11 4 43 17 70 28 98 38 167 69 178 80 6 6 16 11 22 11 29 0 393 228 403
252 2 4 8 8 14 8 6 0 25 12 42 28 18 15 49 40 69 55 171 134 486 463 622 651
11 15 28 37 38 49 10 12 26 34 35 50 9 15 20 27 24 27 4 0 8 5 8 10 0 10 37
68 51 80 11 10 229 356 229 364 0 2 22 42 50 90 27 47 93 175 145 284 53 108
100 205 106 214 5 10 9 25 9 33 0 8 5 15 10 15 6 0 10 6 10 13 0 6 30 82 66
167 36 85 67 162 69 170 2 8 28 83 59 165 53 146 115 332 121 368 2 9 7 22 10
27 7 11 44 141 51 179 3 14 7 28 10 33 3 4 7 16 9 25 3 16 31 128 51 208 4 17
9 37 10 45 2 8 10 42 19 75 8 33 17 74 19 90 2 17 9 48 15 70 5 22 12 56 15
75 3 19 12 71 21 115 9 44 18 98 20 120 2 22 6 51 9 65 3 14 7 43 10 65 3 22
7 58 11 80 36 252 46 651 21 875 -2 19 -7 64 -10 100 -4 36 -9 76 -11 90 -2
14 -7 43 -10 65 -24 174 -118 532 -171 652 -8 17 -14 34 -14 37 0 6 -30 74
-82 186 -49 104 -209 374 -239 400 -3 3 -18 23 -35 45 -16 22 -33 45 -39 51
-5 6 -33 38 -61 70 -56 64 -112 121 -165 169 -76 68 -149 125 -158 125 -5 0
-11 3 -13 8 -5 11 -67 55 -123 87 -27 16 -52 32 -55 35 -5 6 -178 91 -250 123
-52 23 -256 84 -325 97 -33 7 -67 14 -75 17 -8 3 -34 7 -56 9 -23 2 -55 6 -70
10 -33 7 -470 15 -477 8z m213 -2988 c25 -3 66 -11 91 -17 26 -6 55 -12 65
-14 11 -2 20 -4 22 -5 1 -2 7 -4 12 -5 6 -1 13 -4 18 -5 4 -1 12 -3 17 -4 13
-3 39 -14 105 -44 30 -14 58 -26 61 -26 27 -4 160 -106 230 -175 114 -113 185
-222 261 -401 6 -14 14 -32 18 -41 8 -16 32 -98 32 -109 0 -3 4 -12 8 -20 4
-8 11 -32 14 -54 4 -21 8 -42 11 -46 3 -4 7 -23 10 -41 2 -19 7 -45 10 -59 27
-127 27 -575 0 -680 -2 -8 -7 -33 -10 -55 -3 -23 -8 -52 -10 -65 -3 -14 -8
-38 -11 -55 -4 -24 -24 -113 -59 -265 -6 -29 -34 -126 -55 -195 -12 -38 -22
-74 -24 -80 -12 -51 -104 -302 -156 -425 -18 -41 -34 -85 -37 -97 -3 -12 -11
-28 -19 -34 -8 -6 -14 -18 -14 -26 0 -8 -38 -88 -84 -178 -201 -390 -447 -721
-695 -935 -28 -25 -69 -60 -89 -77 -20 -18 -40 -33 -44 -33 -5 0 -16 -8 -26
-17 -49 -49 -252 -164 -377 -213 -91 -36 -181 -65 -240 -76 -50 -10 -54 -11
-57 -14 -19 -14 -172 -25 -343 -24 -164 2 -228 8 -354 38 -46 11 -156 49 -186
64 -16 9 -33 16 -37 17 -3 0 -46 26 -95 57 -140 90 -265 233 -346 393 -51 102
-111 301 -122 405 -2 19 -7 64 -11 100 -13 115 -6 348 12 433 3 12 7 38 9 57
4 38 13 91 20 130 3 14 7 39 10 55 2 17 7 41 10 55 3 14 10 48 15 75 6 28 12
60 15 73 5 23 11 49 20 92 12 54 15 67 29 120 9 30 16 65 16 78 0 12 5 22 11
22 5 0 8 4 5 8 -3 5 2 33 10 63 8 30 17 63 19 74 3 11 12 45 20 75 8 30 18 66
21 79 3 13 9 32 15 43 5 10 8 18 5 18 -2 0 3 21 11 48 8 26 16 54 18 62 2 8
18 58 34 110 17 52 31 98 31 102 0 4 5 19 12 35 6 15 12 30 13 33 23 95 101
269 183 412 81 142 95 165 115 188 9 11 17 25 17 30 0 6 5 10 10 10 6 0 10 5
10 11 0 9 71 105 115 156 5 6 21 26 35 45 48 65 296 305 380 368 47 35 87 66
90 69 3 3 17 13 32 21 14 8 57 34 95 56 37 23 71 42 76 43 4 0 26 12 50 25
120 70 376 145 550 161 15 1 29 4 32 6 6 7 293 2 345 -5z"/>
<path d="M1875 9589 c-55 -10 -136 -30 -180 -45 -75 -25 -273 -117 -285 -132
-3 -4 -17 -13 -32 -21 -15 -8 -37 -22 -47 -33 -11 -10 -23 -18 -27 -18 -26 0
-348 -306 -360 -342 -3 -10 -9 -18 -14 -18 -11 0 -127 -158 -202 -275 -111
-173 -256 -485 -292 -630 -30 -118 -21 -161 39 -190 69 -32 141 -10 172 55 9
19 18 37 18 40 1 7 26 83 32 100 4 8 7 17 8 20 8 32 30 88 39 99 6 8 10 17 10
20 -1 3 2 16 7 29 5 13 9 25 9 26 0 2 14 34 32 72 17 38 32 74 34 79 1 6 15
33 31 60 16 28 36 65 44 83 7 17 17 32 21 32 5 0 8 5 8 10 0 12 103 171 125
193 8 9 15 19 15 22 0 4 9 17 19 29 11 11 39 43 63 70 84 96 167 170 294 263
47 35 191 113 208 113 9 0 16 4 16 9 0 5 15 12 33 16 17 4 34 9 37 10 109 43
195 58 316 58 222 -1 405 -116 489 -308 42 -97 51 -128 69 -227 14 -82 11
-393 -4 -393 -1 0 -3 -9 -5 -20 -1 -11 -6 -38 -9 -60 -6 -37 -9 -54 -20 -110
-7 -36 -53 -230 -62 -260 -2 -5 -6 -23 -9 -40 -3 -16 -13 -53 -21 -82 -8 -29
-17 -65 -20 -80 -3 -15 -8 -37 -11 -48 -8 -23 -9 -28 -17 -72 -3 -18 -11 -44
-16 -58 -5 -14 -12 -38 -15 -53 -9 -49 -13 -67 -25 -112 -7 -25 -13 -52 -15
-60 -2 -8 -17 -71 -35 -140 -18 -69 -33 -132 -35 -140 -2 -8 -17 -71 -35 -140
-18 -69 -34 -133 -36 -142 -2 -10 -6 -26 -8 -35 -2 -10 -39 -155 -81 -323 -42
-168 -79 -315 -81 -328 -13 -69 -111 -353 -154 -447 -15 -33 -30 -70 -34 -82
-4 -13 -12 -23 -17 -23 -5 0 -9 -7 -9 -15 0 -24 -109 -199 -172 -275 -61 -75
-135 -149 -195 -193 -42 -32 -215 -119 -229 -116 -5 1 -16 0 -24 -4 -70 -26
-315 -32 -410 -9 -25 6 -56 13 -70 15 -14 3 -45 12 -70 22 -25 9 -49 17 -55
18 -29 7 -127 58 -122 63 3 4 38 17 77 30 227 77 383 286 375 505 -3 88 -7
103 -35 159 -72 140 -251 208 -437 164 -41 -9 -76 -21 -79 -26 -3 -4 -14 -8
-25 -8 -10 0 -19 -4 -19 -9 0 -5 -14 -14 -31 -21 -41 -18 -139 -113 -183 -180
-70 -105 -105 -278 -82 -405 12 -67 17 -83 53 -153 68 -133 199 -243 373 -312
65 -26 171 -58 219 -66 18 -3 43 -8 55 -10 126 -27 354 -24 475 5 52 13 102
27 110 31 9 5 47 23 84 40 127 57 261 159 370 280 88 98 103 116 140 170 17
25 34 47 39 48 4 2 8 8 8 14 0 5 9 23 21 39 11 16 42 68 69 115 l48 87 22 -72
c13 -39 27 -74 31 -77 5 -3 9 -14 9 -25 0 -10 5 -19 12 -19 6 0 9 -3 5 -6 -8
-8 43 -101 101 -184 59 -84 183 -207 258 -257 33 -21 61 -41 64 -44 16 -18
238 -112 292 -123 13 -3 33 -7 46 -10 84 -21 156 -29 267 -29 98 -1 190 9 275
29 14 3 32 7 40 9 133 27 423 175 515 263 8 6 16 12 18 12 15 0 207 186 282
274 70 82 193 246 207 279 7 15 16 27 20 27 5 0 8 7 8 15 0 8 4 15 9 15 5 0
11 8 14 18 4 9 22 44 42 77 68 115 195 393 195 427 0 4 5 19 12 35 13 32 11
26 23 78 26 119 -8 178 -100 178 -71 0 -102 -34 -140 -153 -56 -174 -167 -427
-251 -570 -130 -223 -331 -444 -529 -582 -297 -207 -648 -265 -880 -147 -57
29 -185 147 -185 170 0 6 -6 17 -14 25 -16 16 -72 156 -81 200 -2 16 -8 40
-11 54 -11 41 -13 363 -3 416 5 27 12 65 15 84 11 69 75 362 109 500 3 11 7
29 10 41 2 11 6 28 9 37 3 9 8 31 11 47 8 38 13 60 15 60 1 0 3 11 6 23 2 13
29 121 60 240 30 120 57 224 59 232 12 48 93 363 135 525 28 105 52 201 56
215 3 14 8 32 11 40 3 8 7 24 8 35 2 11 10 46 19 76 9 31 18 65 20 75 6 28 52
200 71 264 23 76 75 220 91 250 7 14 30 61 50 105 21 44 42 85 46 90 5 6 27
39 50 75 113 176 259 311 421 390 42 21 77 36 77 34 0 -3 9 0 20 6 37 20 169
37 258 35 80 -3 107 -6 192 -21 14 -2 34 -6 45 -8 11 -2 20 -4 20 -5 0 -2 11
-5 25 -8 35 -7 42 -9 73 -21 16 -7 31 -12 33 -12 3 0 29 -11 59 -24 58 -27 78
-46 47 -46 -29 0 -172 -59 -209 -86 -17 -13 -34 -24 -38 -24 -8 0 -97 -97
-109 -118 -5 -10 -13 -20 -18 -23 -5 -3 -10 -12 -12 -20 -1 -8 -10 -29 -19
-46 -10 -18 -15 -33 -12 -33 3 0 1 -9 -5 -20 -13 -24 -21 -75 -25 -150 -4 -96
41 -204 110 -262 17 -15 100 -61 115 -64 3 0 16 -4 30 -8 14 -4 49 -8 78 -10
47 -3 74 0 168 20 21 4 81 31 136 60 15 8 55 42 87 75 151 151 209 361 156
564 -11 40 -72 157 -91 171 -8 6 -14 15 -14 19 0 14 -83 85 -153 132 -89 58
-189 103 -267 119 -13 3 -30 10 -37 16 -7 6 -13 8 -13 5 0 -3 -15 -1 -32 4
-18 5 -53 12 -77 15 -23 3 -64 9 -89 14 -50 9 -289 7 -337 -4 -144 -31 -141
-30 -275 -94 -75 -35 -132 -70 -138 -84 -2 -5 -8 -8 -14 -8 -20 0 -207 -173
-263 -243 -5 -7 -26 -32 -46 -57 -54 -69 -132 -187 -174 -268 -42 -79 -43 -79
-71 4 -25 74 -106 231 -157 305 -67 95 -175 202 -267 265 -241 164 -559 228
-865 173z"/>
<path d="M8518 9605 c-2 -2 -28 -7 -58 -10 -81 -10 -86 -11 -190 -38 -96 -26
-172 -51 -245 -82 -83 -34 -285 -139 -285 -147 0 -4 -5 -8 -11 -8 -6 0 -31
-13 -56 -30 -24 -16 -46 -30 -48 -30 -3 0 -13 -6 -22 -14 -10 -8 -59 -45 -109
-83 -50 -37 -120 -93 -154 -123 -62 -53 -260 -248 -260 -254 0 -2 -17 -21 -37
-43 -42 -45 -41 -43 -144 -174 -68 -86 -131 -173 -169 -233 -126 -200 -267
-456 -252 -456 4 0 2 -4 -3 -8 -12 -8 -137 -297 -140 -322 -1 -3 -15 -48 -32
-100 -29 -87 -51 -163 -53 -182 0 -4 -7 -26 -15 -48 -8 -22 -13 -40 -11 -40 2
0 -2 -20 -9 -44 -8 -24 -11 -47 -8 -49 3 -3 1 -12 -3 -19 -5 -7 -9 -19 -10
-26 -2 -8 -8 -46 -14 -85 -30 -184 -40 -301 -42 -459 0 -112 10 -322 18 -362
4 -20 12 -68 19 -111 38 -239 141 -499 275 -694 172 -253 447 -452 720 -522
49 -12 54 -13 118 -24 78 -13 97 -14 197 -15 195 -2 376 41 575 137 68 33 222
122 259 150 9 6 50 37 91 68 123 92 265 225 407 381 56 61 73 74 73 58 0 -70
124 -384 151 -384 5 0 9 -5 9 -11 0 -12 45 -71 96 -125 31 -32 143 -120 184
-143 38 -22 124 -63 135 -65 6 -1 15 -4 20 -8 15 -8 114 -36 155 -42 19 -3 46
-8 60 -11 40 -9 202 -6 261 5 90 17 174 53 264 112 67 45 210 186 220 218 3
11 10 20 14 20 8 0 51 67 109 171 46 82 116 262 179 459 30 96 56 183 58 193
2 9 6 21 9 25 3 5 7 19 9 33 3 13 13 53 22 89 9 36 18 72 20 80 2 8 13 55 25
105 11 49 21 104 22 121 2 46 -25 81 -72 95 -60 18 -107 -3 -136 -61 -12 -25
-21 -47 -19 -49 3 -2 0 -12 -6 -23 -6 -11 -12 -27 -14 -36 -2 -9 -8 -37 -14
-62 -7 -25 -13 -53 -16 -63 -2 -10 -7 -28 -11 -40 -4 -12 -9 -29 -10 -37 -1
-8 -10 -40 -19 -70 -9 -30 -18 -62 -20 -71 -2 -9 -13 -47 -25 -85 -12 -38 -23
-76 -25 -84 -11 -44 -77 -223 -108 -290 -11 -25 -22 -50 -23 -57 -2 -10 -41
-85 -88 -168 -39 -69 -76 -115 -148 -187 -189 -185 -478 -178 -578 15 -16 32
-32 68 -34 80 -3 12 -8 33 -11 47 -4 20 -16 172 -17 225 -1 78 16 239 36 350
17 90 18 92 41 190 23 98 38 170 36 180 0 2 6 22 14 44 7 22 11 42 8 45 -4 3
-2 6 3 6 5 0 10 8 10 18 1 9 11 53 23 97 12 44 24 91 27 105 3 14 9 39 14 55
14 43 50 185 56 220 4 17 10 38 15 48 5 9 7 17 5 17 -3 0 1 19 10 41 8 23 16
51 18 63 3 12 37 149 76 306 40 157 74 296 76 310 3 14 11 46 19 73 8 26 12
47 9 47 -3 0 0 9 6 19 5 11 12 32 14 48 2 15 6 35 9 43 6 17 25 93 33 130 3
14 14 61 25 105 11 44 22 94 25 110 4 17 10 38 15 48 5 9 7 17 3 17 -3 0 -1 6
5 13 6 8 9 16 6 19 -3 2 1 26 9 51 8 26 12 47 10 47 -2 0 1 11 6 25 5 14 12
36 14 48 8 35 12 52 55 227 23 91 43 174 45 185 10 54 37 168 41 175 9 14 19
94 18 147 -1 93 -61 182 -153 226 -36 18 -63 22 -135 22 -82 0 -97 -3 -155
-32 -137 -69 -222 -191 -276 -395 -1 -5 -2 -17 -3 -28 -2 -36 -16 -22 -56 58
-22 42 -44 80 -50 84 -6 5 -6 8 0 8 6 0 6 3 -1 8 -5 4 -26 29 -45 57 -65 94
-179 212 -253 262 -22 15 -43 30 -46 33 -3 3 -38 23 -77 43 -72 38 -195 81
-263 93 -37 6 -317 14 -322 9z m256 -220 c27 -3 52 -7 56 -10 3 -2 17 -6 31
-8 137 -26 319 -164 427 -324 74 -109 162 -309 186 -424 3 -13 10 -42 15 -64
22 -89 21 -131 -5 -226 -21 -77 -134 -526 -150 -591 -2 -10 -6 -26 -8 -35 -13
-50 -58 -230 -61 -243 -2 -8 -20 -80 -40 -160 -21 -80 -39 -152 -40 -160 -1
-8 -8 -35 -14 -60 -7 -25 -14 -52 -16 -60 -2 -8 -20 -80 -40 -160 -20 -80 -38
-152 -40 -160 -2 -8 -22 -89 -45 -180 -23 -91 -43 -174 -45 -185 -2 -11 -4
-20 -5 -20 -1 0 -3 -9 -5 -19 -26 -141 -95 -336 -148 -421 -26 -42 -148 -202
-184 -241 -118 -129 -196 -206 -314 -307 -123 -107 -403 -268 -505 -293 -16
-4 -35 -11 -41 -17 -7 -5 -13 -7 -13 -4 0 4 -27 -1 -95 -19 -46 -12 -224 -11
-284 2 -201 42 -368 195 -453 414 -34 88 -35 92 -50 150 -16 64 -20 85 -23
105 -2 11 -4 20 -5 20 -2 0 -7 45 -16 140 -7 82 -8 273 -1 364 8 89 31 275 37
291 2 3 2 8 1 12 0 4 4 31 10 60 6 29 13 67 15 83 3 17 12 62 20 100 8 39 17
79 19 90 26 150 161 673 214 832 11 32 22 70 25 84 5 22 98 294 113 329 3 8 7
17 8 20 1 3 5 13 8 23 4 9 10 25 14 35 3 9 7 19 8 22 2 7 30 68 54 120 12 25
40 77 62 115 21 39 42 78 45 88 4 9 10 17 15 17 5 0 9 5 9 11 0 18 146 230
216 315 106 127 231 252 309 309 22 16 45 34 50 40 16 17 150 95 163 95 7 0
12 3 12 8 0 16 165 75 255 91 102 18 142 19 249 6z"/>
</g>
</svg>
