<?xml version="1.0" standalone="no"?>
<!DOCTYPE svg PUBLIC "-//W3C//DTD SVG 20010904//EN"
 "http://www.w3.org/TR/2001/REC-SVG-20010904/DTD/svg10.dtd">
<svg version="1.0" xmlns="http://www.w3.org/2000/svg"
 width="700.000000pt" height="700.000000pt" viewBox="0 0 700.000000 700.000000"
 preserveAspectRatio="xMidYMid meet">
<metadata>
Created by potrace 1.14, written by Peter Selinger 2001-2017
</metadata>
<g transform="translate(0.000000,700.000000) scale(0.100000,-0.100000)"
fill="#000000" stroke="none">
<path d="M3785 6949 c-616 -50 -1108 -363 -1410 -899 -108 -191 -190 -442
-182 -555 12 -157 121 -261 287 -272 138 -10 255 33 350 127 98 98 158 247
146 362 -16 157 -120 239 -321 254 -47 4 -85 9 -85 12 0 3 30 51 67 106 82
124 264 309 378 385 229 151 506 243 785 260 573 35 1009 -208 1259 -702 285
-562 278 -1344 -21 -2492 -47 -177 -43 -176 -73 -13 -48 261 -172 505 -345
679 -99 100 -176 154 -304 215 -184 87 -365 119 -625 111 -235 -7 -407 -39
-646 -120 -664 -227 -1291 -780 -1639 -1448 -156 -298 -253 -597 -302 -926
-23 -153 -24 -469 -1 -588 124 -657 511 -1129 1075 -1314 328 -107 751 -114
1125 -16 735 191 1384 792 1885 1745 446 850 758 2053 728 2807 -25 635 -201
1174 -517 1583 -249 322 -596 553 -977 649 -180 46 -440 66 -637 50z m205
-2620 c527 -76 850 -540 850 -1224 0 -561 -276 -1386 -652 -1947 -204 -306
-492 -574 -758 -708 -322 -162 -731 -197 -1055 -90 -411 136 -644 542 -622
1084 13 330 190 1097 361 1568 118 326 389 709 665 939 374 313 778 439 1211
378z"/>
</g>
</svg>
