<?xml version="1.0" encoding="UTF-8" standalone="no"?>
<!-- Created with Inkscape (http://www.inkscape.org/) -->

<svg
   xmlns:dc="http://purl.org/dc/elements/1.1/"
   xmlns:cc="http://creativecommons.org/ns#"
   xmlns:rdf="http://www.w3.org/1999/02/22-rdf-syntax-ns#"
   xmlns:svg="http://www.w3.org/2000/svg"
   xmlns="http://www.w3.org/2000/svg"
   xmlns:sodipodi="http://sodipodi.sourceforge.net/DTD/sodipodi-0.dtd"
   xmlns:inkscape="http://www.inkscape.org/namespaces/inkscape"
   id="svg4155"
   version="1.1"
   inkscape:version="0.91 r13725"
   xml:space="preserve"
   width="504.23224"
   height="308.53442"
   viewBox="0 0 504.23224 308.53442"
   sodipodi:docname="sabs_orig.svg"><metadata
     id="metadata4161"><rdf:RDF><cc:Work
         rdf:about=""><dc:format>image/svg+xml</dc:format><dc:type
           rdf:resource="http://purl.org/dc/dcmitype/StillImage" /><dc:title></dc:title></cc:Work></rdf:RDF></metadata><defs
     id="defs4159"><clipPath
       clipPathUnits="userSpaceOnUse"
       id="clipPath4171"><path
         d="m 0,5 4880,0 0,3145 L 0,3150 0,5 Z"
         id="path4173"
         inkscape:connector-curvature="0" /></clipPath><clipPath
       clipPathUnits="userSpaceOnUse"
       id="clipPath4413"><path
         d="m 634.168,685.832 3784.16,0 0,1892.5 -3784.16,0 0,-1892.5 z"
         id="path4415"
         inkscape:connector-curvature="0" /></clipPath></defs><sodipodi:namedview
     pagecolor="#ffffff"
     bordercolor="#666666"
     borderopacity="1"
     objecttolerance="10"
     gridtolerance="10"
     guidetolerance="10"
     inkscape:pageopacity="0"
     inkscape:pageshadow="2"
     inkscape:window-width="1920"
     inkscape:window-height="1056"
     id="namedview4157"
     showgrid="false"
     fit-margin-top="0"
     fit-margin-left="0"
     fit-margin-right="0"
     fit-margin-bottom="0"
     inkscape:zoom="2.2737705"
     inkscape:cx="252.8935"
     inkscape:cy="150.71492"
     inkscape:window-x="1600"
     inkscape:window-y="24"
     inkscape:window-maximized="1"
     inkscape:current-layer="g4163" /><g
     id="g4163"
     inkscape:groupmode="layer"
     inkscape:label="ink_ext_XXXXXX"
     transform="matrix(1.25,0,0,-1.25,-52.106499,347.02193)"><path
       inkscape:connector-curvature="0"
       id="path4177"
       style="fill:#ffffff;fill-opacity:1;fill-rule:evenodd;stroke:none"
       d="m 63.4168,68.6668 378.333,0 0,189.166 -378.333,0 0,-189.166 z" /><path
       inkscape:connector-curvature="0"
       id="path4179"
       style="fill:none;stroke:#ffffff;stroke-width:0.5;stroke-linecap:butt;stroke-linejoin:round;stroke-miterlimit:10;stroke-dasharray:none;stroke-opacity:1"
       d="m 63.4168,68.6668 0,189.1662 378.3332,0 0,-189.1662 -378.3332,0" /><path
       inkscape:connector-curvature="0"
       id="path4181"
       style="fill:none;stroke:#000000;stroke-width:0.33333299;stroke-linecap:butt;stroke-linejoin:round;stroke-miterlimit:10;stroke-dasharray:0.5, 4;stroke-dashoffset:0;stroke-opacity:1"
       d="m 63.4168,68.6668 0,189.1662" /><path
       inkscape:connector-curvature="0"
       id="path4183"
       style="fill:none;stroke:#000000;stroke-width:0.33333299;stroke-linecap:butt;stroke-linejoin:round;stroke-miterlimit:10;stroke-dasharray:0.5, 4;stroke-dashoffset:0;stroke-opacity:1"
       d="m 63.4168,257.833 0,0" /><path
       inkscape:connector-curvature="0"
       id="path4185"
       style="fill:none;stroke:#000000;stroke-width:0.33333299;stroke-linecap:butt;stroke-linejoin:round;stroke-miterlimit:10;stroke-dasharray:0.5, 4;stroke-dashoffset:0;stroke-opacity:1"
       d="m 110.667,68.6668 0,189.1662" /><path
       inkscape:connector-curvature="0"
       id="path4187"
       style="fill:none;stroke:#000000;stroke-width:0.33333299;stroke-linecap:butt;stroke-linejoin:round;stroke-miterlimit:10;stroke-dasharray:0.5, 4;stroke-dashoffset:0;stroke-opacity:1"
       d="m 110.667,257.833 0,0" /><path
       inkscape:connector-curvature="0"
       id="path4189"
       style="fill:none;stroke:#000000;stroke-width:0.33333299;stroke-linecap:butt;stroke-linejoin:round;stroke-miterlimit:10;stroke-dasharray:0.5, 4;stroke-dashoffset:0;stroke-opacity:1"
       d="m 158,68.6668 0,189.1662" /><path
       inkscape:connector-curvature="0"
       id="path4191"
       style="fill:none;stroke:#000000;stroke-width:0.33333299;stroke-linecap:butt;stroke-linejoin:round;stroke-miterlimit:10;stroke-dasharray:0.5, 4;stroke-dashoffset:0;stroke-opacity:1"
       d="m 158,257.833 0,0" /><path
       inkscape:connector-curvature="0"
       id="path4193"
       style="fill:none;stroke:#000000;stroke-width:0.33333299;stroke-linecap:butt;stroke-linejoin:round;stroke-miterlimit:10;stroke-dasharray:0.5, 4;stroke-dashoffset:0;stroke-opacity:1"
       d="m 205.25,68.6668 0,189.1662" /><path
       inkscape:connector-curvature="0"
       id="path4195"
       style="fill:none;stroke:#000000;stroke-width:0.33333299;stroke-linecap:butt;stroke-linejoin:round;stroke-miterlimit:10;stroke-dasharray:0.5, 4;stroke-dashoffset:0;stroke-opacity:1"
       d="m 205.25,257.833 0,0" /><path
       inkscape:connector-curvature="0"
       id="path4197"
       style="fill:none;stroke:#000000;stroke-width:0.33333299;stroke-linecap:butt;stroke-linejoin:round;stroke-miterlimit:10;stroke-dasharray:0.5, 4;stroke-dashoffset:0;stroke-opacity:1"
       d="m 252.583,68.6668 0,189.1662" /><path
       inkscape:connector-curvature="0"
       id="path4199"
       style="fill:none;stroke:#000000;stroke-width:0.33333299;stroke-linecap:butt;stroke-linejoin:round;stroke-miterlimit:10;stroke-dasharray:0.5, 4;stroke-dashoffset:0;stroke-opacity:1"
       d="m 252.583,257.833 0,0" /><path
       inkscape:connector-curvature="0"
       id="path4201"
       style="fill:none;stroke:#000000;stroke-width:0.33333299;stroke-linecap:butt;stroke-linejoin:round;stroke-miterlimit:10;stroke-dasharray:0.5, 4;stroke-dashoffset:0;stroke-opacity:1"
       d="m 299.833,68.6668 0,189.1662" /><path
       inkscape:connector-curvature="0"
       id="path4203"
       style="fill:none;stroke:#000000;stroke-width:0.33333299;stroke-linecap:butt;stroke-linejoin:round;stroke-miterlimit:10;stroke-dasharray:0.5, 4;stroke-dashoffset:0;stroke-opacity:1"
       d="m 299.833,257.833 0,0" /><path
       inkscape:connector-curvature="0"
       id="path4205"
       style="fill:none;stroke:#000000;stroke-width:0.33333299;stroke-linecap:butt;stroke-linejoin:round;stroke-miterlimit:10;stroke-dasharray:0.5, 4;stroke-dashoffset:0;stroke-opacity:1"
       d="m 347.167,68.6668 0,189.1662" /><path
       inkscape:connector-curvature="0"
       id="path4207"
       style="fill:none;stroke:#000000;stroke-width:0.33333299;stroke-linecap:butt;stroke-linejoin:round;stroke-miterlimit:10;stroke-dasharray:0.5, 4;stroke-dashoffset:0;stroke-opacity:1"
       d="m 347.167,257.833 0,0" /><path
       inkscape:connector-curvature="0"
       id="path4209"
       style="fill:none;stroke:#000000;stroke-width:0.33333299;stroke-linecap:butt;stroke-linejoin:round;stroke-miterlimit:10;stroke-dasharray:0.5, 4;stroke-dashoffset:0;stroke-opacity:1"
       d="m 394.417,68.6668 0,189.1662" /><path
       inkscape:connector-curvature="0"
       id="path4211"
       style="fill:none;stroke:#000000;stroke-width:0.33333299;stroke-linecap:butt;stroke-linejoin:round;stroke-miterlimit:10;stroke-dasharray:0.5, 4;stroke-dashoffset:0;stroke-opacity:1"
       d="m 394.417,257.833 0,0" /><path
       inkscape:connector-curvature="0"
       id="path4213"
       style="fill:none;stroke:#000000;stroke-width:0.33333299;stroke-linecap:butt;stroke-linejoin:round;stroke-miterlimit:10;stroke-dasharray:0.5, 4;stroke-dashoffset:0;stroke-opacity:1"
       d="m 441.75,68.6668 0,189.1662" /><path
       inkscape:connector-curvature="0"
       id="path4215"
       style="fill:none;stroke:#000000;stroke-width:0.33333299;stroke-linecap:butt;stroke-linejoin:round;stroke-miterlimit:10;stroke-dasharray:0.5, 4;stroke-dashoffset:0;stroke-opacity:1"
       d="m 441.75,257.833 0,0" /><path
       inkscape:connector-curvature="0"
       id="path4217"
       style="fill:none;stroke:#000000;stroke-width:0.33333299;stroke-linecap:butt;stroke-linejoin:round;stroke-miterlimit:10;stroke-dasharray:0.5, 4;stroke-dashoffset:0;stroke-opacity:1"
       d="m 63.4168,68.6668 378.3332,0" /><path
       inkscape:connector-curvature="0"
       id="path4219"
       style="fill:none;stroke:#000000;stroke-width:0.33333299;stroke-linecap:butt;stroke-linejoin:round;stroke-miterlimit:10;stroke-dasharray:0.5, 4;stroke-dashoffset:0;stroke-opacity:1"
       d="m 441.75,68.6668 0,0" /><path
       inkscape:connector-curvature="0"
       id="path4221"
       style="fill:none;stroke:#000000;stroke-width:0.33333299;stroke-linecap:butt;stroke-linejoin:round;stroke-miterlimit:10;stroke-dasharray:0.5, 4;stroke-dashoffset:0;stroke-opacity:1"
       d="M 63.4168,116 441.75,116" /><path
       inkscape:connector-curvature="0"
       id="path4223"
       style="fill:none;stroke:#000000;stroke-width:0.33333299;stroke-linecap:butt;stroke-linejoin:round;stroke-miterlimit:10;stroke-dasharray:0.5, 4;stroke-dashoffset:0;stroke-opacity:1"
       d="m 441.75,116 0,0" /><path
       inkscape:connector-curvature="0"
       id="path4225"
       style="fill:none;stroke:#000000;stroke-width:0.33333299;stroke-linecap:butt;stroke-linejoin:round;stroke-miterlimit:10;stroke-dasharray:0.5, 4;stroke-dashoffset:0;stroke-opacity:1"
       d="m 63.4168,163.25 378.3332,0" /><path
       inkscape:connector-curvature="0"
       id="path4227"
       style="fill:none;stroke:#000000;stroke-width:0.33333299;stroke-linecap:butt;stroke-linejoin:round;stroke-miterlimit:10;stroke-dasharray:0.5, 4;stroke-dashoffset:0;stroke-opacity:1"
       d="m 441.75,163.25 0,0" /><path
       inkscape:connector-curvature="0"
       id="path4229"
       style="fill:none;stroke:#000000;stroke-width:0.33333299;stroke-linecap:butt;stroke-linejoin:round;stroke-miterlimit:10;stroke-dasharray:0.5, 4;stroke-dashoffset:0;stroke-opacity:1"
       d="m 63.4168,210.583 378.3332,0" /><path
       inkscape:connector-curvature="0"
       id="path4231"
       style="fill:none;stroke:#000000;stroke-width:0.33333299;stroke-linecap:butt;stroke-linejoin:round;stroke-miterlimit:10;stroke-dasharray:0.5, 4;stroke-dashoffset:0;stroke-opacity:1"
       d="m 441.75,210.583 0,0" /><path
       inkscape:connector-curvature="0"
       id="path4233"
       style="fill:none;stroke:#000000;stroke-width:0.33333299;stroke-linecap:butt;stroke-linejoin:round;stroke-miterlimit:10;stroke-dasharray:0.5, 4;stroke-dashoffset:0;stroke-opacity:1"
       d="m 63.4168,257.833 378.3332,0" /><path
       inkscape:connector-curvature="0"
       id="path4235"
       style="fill:none;stroke:#000000;stroke-width:0.33333299;stroke-linecap:butt;stroke-linejoin:round;stroke-miterlimit:10;stroke-dasharray:0.5, 4;stroke-dashoffset:0;stroke-opacity:1"
       d="m 441.75,257.833 0,0" /><path
       inkscape:connector-curvature="0"
       id="path4237"
       style="fill:none;stroke:#000000;stroke-width:0.5;stroke-linecap:butt;stroke-linejoin:round;stroke-miterlimit:10;stroke-dasharray:none;stroke-opacity:1"
       d="m 63.4168,68.6668 378.3332,0" /><path
       inkscape:connector-curvature="0"
       id="path4239"
       style="fill:none;stroke:#000000;stroke-width:0.5;stroke-linecap:butt;stroke-linejoin:round;stroke-miterlimit:10;stroke-dasharray:none;stroke-opacity:1"
       d="m 63.4168,257.833 378.3332,0" /><path
       inkscape:connector-curvature="0"
       id="path4241"
       style="fill:none;stroke:#000000;stroke-width:0.5;stroke-linecap:butt;stroke-linejoin:round;stroke-miterlimit:10;stroke-dasharray:none;stroke-opacity:1"
       d="m 63.4168,68.6668 0,189.1662" /><path
       inkscape:connector-curvature="0"
       id="path4243"
       style="fill:none;stroke:#000000;stroke-width:0.5;stroke-linecap:butt;stroke-linejoin:round;stroke-miterlimit:10;stroke-dasharray:none;stroke-opacity:1"
       d="m 441.75,68.6668 0,189.1662" /><path
       inkscape:connector-curvature="0"
       id="path4245"
       style="fill:none;stroke:#000000;stroke-width:0.5;stroke-linecap:butt;stroke-linejoin:round;stroke-miterlimit:10;stroke-dasharray:none;stroke-opacity:1"
       d="m 63.4168,68.6668 378.3332,0" /><path
       inkscape:connector-curvature="0"
       id="path4247"
       style="fill:none;stroke:#000000;stroke-width:0.5;stroke-linecap:butt;stroke-linejoin:round;stroke-miterlimit:10;stroke-dasharray:none;stroke-opacity:1"
       d="m 63.4168,68.6668 0,189.1662" /><path
       inkscape:connector-curvature="0"
       id="path4249"
       style="fill:none;stroke:#000000;stroke-width:0.5;stroke-linecap:butt;stroke-linejoin:round;stroke-miterlimit:10;stroke-dasharray:none;stroke-opacity:1"
       d="m 63.4168,68.6668 0,3.8332" /><path
       inkscape:connector-curvature="0"
       id="path4251"
       style="fill:none;stroke:#000000;stroke-width:0.5;stroke-linecap:butt;stroke-linejoin:round;stroke-miterlimit:10;stroke-dasharray:none;stroke-opacity:1"
       d="m 63.4168,257.833 0,-3.75" /><g
       transform="scale(1,-1)"
       style="font-variant:normal;font-weight:normal;font-size:14px;font-family:Helvetica;-inkscape-font-specification:Helvetica;writing-mode:lr-tb;fill:#000000;fill-opacity:1;fill-rule:nonzero;stroke:none"
       id="text4255"><path
         d="m 58.640801,-55.857199 0,-0.952 -6.272,0 0,0.952 6.272,0 z"
         id="path4844"
         inkscape:connector-curvature="0" /><path
         d="m 66.7468,-59.847199 c 0,-1.68 -1.302,-2.912 -3.178,-2.912 -2.03,0 -3.206,1.036 -3.276,3.444 l 1.232,0 c 0.098,-1.666 0.784,-2.366 2.002,-2.366 1.12,0 1.96,0.798 1.96,1.862 0,0.784 -0.462,1.456 -1.344,1.96 l -1.288,0.728 c -2.072,1.176 -2.674,2.114 -2.786,4.298 l 6.608,0 0,-1.218 -5.222,0 c 0.126,-0.812 0.574,-1.33 1.792,-2.044 l 1.4,-0.756 c 1.386,-0.742 2.1,-1.778 2.1,-2.996 z"
         id="path4846"
         inkscape:connector-curvature="0" /></g><path
       inkscape:connector-curvature="0"
       id="path4259"
       style="fill:none;stroke:#000000;stroke-width:0.5;stroke-linecap:butt;stroke-linejoin:round;stroke-miterlimit:10;stroke-dasharray:none;stroke-opacity:1"
       d="m 110.667,68.6668 0,3.8332" /><path
       inkscape:connector-curvature="0"
       id="path4261"
       style="fill:none;stroke:#000000;stroke-width:0.5;stroke-linecap:butt;stroke-linejoin:round;stroke-miterlimit:10;stroke-dasharray:none;stroke-opacity:1"
       d="m 110.667,257.833 0,-3.75" /><g
       transform="scale(1,-1)"
       style="font-variant:normal;font-weight:normal;font-size:14px;font-family:Helvetica;-inkscape-font-specification:Helvetica;writing-mode:lr-tb;fill:#000000;fill-opacity:1;fill-rule:nonzero;stroke:none"
       id="text4265"><path
         d="m 100.0572,-55.857199 0,-0.952 -6.272001,0 0,0.952 6.272001,0 z"
         id="path4849"
         inkscape:connector-curvature="0" /><path
         d="m 105.8672,-52.833199 0,-9.926 -0.812,0 c -0.434,1.526 -0.714,1.736 -2.618,1.974 l 0,0.882 2.198,0 0,7.07 1.232,0 z"
         id="path4851"
         inkscape:connector-curvature="0" /><path
         d="m 111.4672,-52.833199 0,-1.456 -1.456,0 0,1.456 1.456,0 z"
         id="path4853"
         inkscape:connector-curvature="0" /><path
         d="m 119.8672,-56.123199 c 0,-1.96 -1.302,-3.248 -3.206,-3.248 -0.7,0 -1.26,0.182 -1.834,0.602 l 0.392,-2.562 4.13,0 0,-1.218 -5.124,0 -0.742,5.194 1.134,0 c 0.574,-0.686 1.05,-0.924 1.82,-0.924 1.33,0 2.17,0.854 2.17,2.324 0,1.428 -0.826,2.24 -2.17,2.24 -1.078,0 -1.736,-0.546 -2.03,-1.666 l -1.232,0 c 0.406,1.974 1.526,2.758 3.29,2.758 2.002,0 3.402,-1.4 3.402,-3.5 z"
         id="path4855"
         inkscape:connector-curvature="0" /></g><path
       inkscape:connector-curvature="0"
       id="path4269"
       style="fill:none;stroke:#000000;stroke-width:0.5;stroke-linecap:butt;stroke-linejoin:round;stroke-miterlimit:10;stroke-dasharray:none;stroke-opacity:1"
       d="M 158,68.6668 158,72.5" /><path
       inkscape:connector-curvature="0"
       id="path4271"
       style="fill:none;stroke:#000000;stroke-width:0.5;stroke-linecap:butt;stroke-linejoin:round;stroke-miterlimit:10;stroke-dasharray:none;stroke-opacity:1"
       d="m 158,257.833 0,-3.75" /><g
       transform="scale(1,-1)"
       style="font-variant:normal;font-weight:normal;font-size:14px;font-family:Helvetica;-inkscape-font-specification:Helvetica;writing-mode:lr-tb;fill:#000000;fill-opacity:1;fill-rule:nonzero;stroke:none"
       id="text4275"><path
         d="m 153.224,-55.857199 0,-0.952 -6.272,0 0,0.952 6.272,0 z"
         id="path4858"
         inkscape:connector-curvature="0" /><path
         d="m 159.03399,-52.833199 0,-9.926 -0.812,0 c -0.434,1.526 -0.714,1.736 -2.618,1.974 l 0,0.882 2.198,0 0,7.07 1.232,0 z"
         id="path4860"
         inkscape:connector-curvature="0" /></g><path
       inkscape:connector-curvature="0"
       id="path4279"
       style="fill:none;stroke:#000000;stroke-width:0.5;stroke-linecap:butt;stroke-linejoin:round;stroke-miterlimit:10;stroke-dasharray:none;stroke-opacity:1"
       d="m 205.25,68.6668 0,3.8332" /><path
       inkscape:connector-curvature="0"
       id="path4281"
       style="fill:none;stroke:#000000;stroke-width:0.5;stroke-linecap:butt;stroke-linejoin:round;stroke-miterlimit:10;stroke-dasharray:none;stroke-opacity:1"
       d="m 205.25,257.833 0,-3.75" /><g
       transform="scale(1,-1)"
       style="font-variant:normal;font-weight:normal;font-size:14px;font-family:Helvetica;-inkscape-font-specification:Helvetica;writing-mode:lr-tb;fill:#000000;fill-opacity:1;fill-rule:nonzero;stroke:none"
       id="text4285"><path
         d="m 194.64101,-55.857199 0,-0.952 -6.272,0 0,0.952 6.272,0 z"
         id="path4863"
         inkscape:connector-curvature="0" /><path
         d="m 202.691,-57.607199 c 0,-3.444 -1.092,-5.152 -3.248,-5.152 -2.142,0 -3.248,1.736 -3.248,5.068 0,3.346 1.12,5.068 3.248,5.068 2.1,0 3.248,-1.722 3.248,-4.984 z m -1.26,-0.112 c 0,2.814 -0.644,4.074 -2.016,4.074 -1.302,0 -1.96,-1.316 -1.96,-4.032 0,-2.716 0.658,-3.99 1.988,-3.99 1.33,0 1.988,1.288 1.988,3.948 z"
         id="path4865"
         inkscape:connector-curvature="0" /><path
         d="m 206.051,-52.833199 0,-1.456 -1.456,0 0,1.456 1.456,0 z"
         id="path4867"
         inkscape:connector-curvature="0" /><path
         d="m 214.451,-56.123199 c 0,-1.96 -1.302,-3.248 -3.206,-3.248 -0.7,0 -1.26,0.182 -1.834,0.602 l 0.392,-2.562 4.13,0 0,-1.218 -5.124,0 -0.742,5.194 1.134,0 c 0.574,-0.686 1.05,-0.924 1.82,-0.924 1.33,0 2.17,0.854 2.17,2.324 0,1.428 -0.826,2.24 -2.17,2.24 -1.078,0 -1.736,-0.546 -2.03,-1.666 l -1.232,0 c 0.406,1.974 1.526,2.758 3.29,2.758 2.002,0 3.402,-1.4 3.402,-3.5 z"
         id="path4869"
         inkscape:connector-curvature="0" /></g><path
       inkscape:connector-curvature="0"
       id="path4289"
       style="fill:none;stroke:#000000;stroke-width:0.5;stroke-linecap:butt;stroke-linejoin:round;stroke-miterlimit:10;stroke-dasharray:none;stroke-opacity:1"
       d="m 252.583,68.6668 0,3.8332" /><path
       inkscape:connector-curvature="0"
       id="path4291"
       style="fill:none;stroke:#000000;stroke-width:0.5;stroke-linecap:butt;stroke-linejoin:round;stroke-miterlimit:10;stroke-dasharray:none;stroke-opacity:1"
       d="m 252.583,257.833 0,-3.75" /><g
       transform="scale(1,-1)"
       style="font-variant:normal;font-weight:normal;font-size:14px;font-family:Helvetica;-inkscape-font-specification:Helvetica;writing-mode:lr-tb;fill:#000000;fill-opacity:1;fill-rule:nonzero;stroke:none"
       id="text4295"><path
         d="m 255.848,-57.607199 c 0,-3.444 -1.092,-5.152 -3.248,-5.152 -2.142,0 -3.248,1.736 -3.248,5.068 0,3.346 1.12,5.068 3.248,5.068 2.1,0 3.248,-1.722 3.248,-4.984 z m -1.26,-0.112 c 0,2.814 -0.644,4.074 -2.016,4.074 -1.302,0 -1.96,-1.316 -1.96,-4.032 0,-2.716 0.658,-3.99 1.988,-3.99 1.33,0 1.988,1.288 1.988,3.948 z"
         id="path4872"
         inkscape:connector-curvature="0" /></g><path
       inkscape:connector-curvature="0"
       id="path4299"
       style="fill:none;stroke:#000000;stroke-width:0.5;stroke-linecap:butt;stroke-linejoin:round;stroke-miterlimit:10;stroke-dasharray:none;stroke-opacity:1"
       d="m 299.833,68.6668 0,3.8332" /><path
       inkscape:connector-curvature="0"
       id="path4301"
       style="fill:none;stroke:#000000;stroke-width:0.5;stroke-linecap:butt;stroke-linejoin:round;stroke-miterlimit:10;stroke-dasharray:none;stroke-opacity:1"
       d="m 299.833,257.833 0,-3.75" /><g
       transform="scale(1,-1)"
       style="font-variant:normal;font-weight:normal;font-size:14px;font-family:Helvetica;-inkscape-font-specification:Helvetica;writing-mode:lr-tb;fill:#000000;fill-opacity:1;fill-rule:nonzero;stroke:none"
       id="text4305"><path
         d="m 297.26499,-57.607199 c 0,-3.444 -1.092,-5.152 -3.248,-5.152 -2.142,0 -3.248,1.736 -3.248,5.068 0,3.346 1.12,5.068 3.248,5.068 2.1,0 3.248,-1.722 3.248,-4.984 z m -1.26,-0.112 c 0,2.814 -0.644,4.074 -2.016,4.074 -1.302,0 -1.96,-1.316 -1.96,-4.032 0,-2.716 0.658,-3.99 1.988,-3.99 1.33,0 1.988,1.288 1.988,3.948 z"
         id="path4875"
         inkscape:connector-curvature="0" /><path
         d="m 300.62499,-52.833199 0,-1.456 -1.456,0 0,1.456 1.456,0 z"
         id="path4877"
         inkscape:connector-curvature="0" /><path
         d="m 309.02499,-56.123199 c 0,-1.96 -1.302,-3.248 -3.206,-3.248 -0.7,0 -1.26,0.182 -1.834,0.602 l 0.392,-2.562 4.13,0 0,-1.218 -5.124,0 -0.742,5.194 1.134,0 c 0.574,-0.686 1.05,-0.924 1.82,-0.924 1.33,0 2.17,0.854 2.17,2.324 0,1.428 -0.826,2.24 -2.17,2.24 -1.078,0 -1.736,-0.546 -2.03,-1.666 l -1.232,0 c 0.406,1.974 1.526,2.758 3.29,2.758 2.002,0 3.402,-1.4 3.402,-3.5 z"
         id="path4879"
         inkscape:connector-curvature="0" /></g><path
       inkscape:connector-curvature="0"
       id="path4309"
       style="fill:none;stroke:#000000;stroke-width:0.5;stroke-linecap:butt;stroke-linejoin:round;stroke-miterlimit:10;stroke-dasharray:none;stroke-opacity:1"
       d="m 347.167,68.6668 0,3.8332" /><path
       inkscape:connector-curvature="0"
       id="path4311"
       style="fill:none;stroke:#000000;stroke-width:0.5;stroke-linecap:butt;stroke-linejoin:round;stroke-miterlimit:10;stroke-dasharray:none;stroke-opacity:1"
       d="m 347.167,257.833 0,-3.75" /><g
       transform="scale(1,-1)"
       style="font-variant:normal;font-weight:normal;font-size:14px;font-family:Helvetica;-inkscape-font-specification:Helvetica;writing-mode:lr-tb;fill:#000000;fill-opacity:1;fill-rule:nonzero;stroke:none"
       id="text4315"><path
         d="m 348.19101,-52.833199 0,-9.926 -0.812,0 c -0.434,1.526 -0.714,1.736 -2.618,1.974 l 0,0.882 2.198,0 0,7.07 1.232,0 z"
         id="path4882"
         inkscape:connector-curvature="0" /></g><path
       inkscape:connector-curvature="0"
       id="path4319"
       style="fill:none;stroke:#000000;stroke-width:0.5;stroke-linecap:butt;stroke-linejoin:round;stroke-miterlimit:10;stroke-dasharray:none;stroke-opacity:1"
       d="m 394.417,68.6668 0,3.8332" /><path
       inkscape:connector-curvature="0"
       id="path4321"
       style="fill:none;stroke:#000000;stroke-width:0.5;stroke-linecap:butt;stroke-linejoin:round;stroke-miterlimit:10;stroke-dasharray:none;stroke-opacity:1"
       d="m 394.417,257.833 0,-3.75" /><g
       transform="scale(1,-1)"
       style="font-variant:normal;font-weight:normal;font-size:14px;font-family:Helvetica;-inkscape-font-specification:Helvetica;writing-mode:lr-tb;fill:#000000;fill-opacity:1;fill-rule:nonzero;stroke:none"
       id="text4325"><path
         d="m 389.608,-52.833199 0,-9.926 -0.812,0 c -0.434,1.526 -0.714,1.736 -2.618,1.974 l 0,0.882 2.198,0 0,7.07 1.232,0 z"
         id="path4885"
         inkscape:connector-curvature="0" /><path
         d="m 395.208,-52.833199 0,-1.456 -1.456,0 0,1.456 1.456,0 z"
         id="path4887"
         inkscape:connector-curvature="0" /><path
         d="m 403.60799,-56.123199 c 0,-1.96 -1.302,-3.248 -3.206,-3.248 -0.7,0 -1.26,0.182 -1.834,0.602 l 0.392,-2.562 4.13,0 0,-1.218 -5.124,0 -0.742,5.194 1.134,0 c 0.574,-0.686 1.05,-0.924 1.82,-0.924 1.33,0 2.17,0.854 2.17,2.324 0,1.428 -0.826,2.24 -2.17,2.24 -1.078,0 -1.736,-0.546 -2.03,-1.666 l -1.232,0 c 0.406,1.974 1.526,2.758 3.29,2.758 2.002,0 3.402,-1.4 3.402,-3.5 z"
         id="path4889"
         inkscape:connector-curvature="0" /></g><path
       inkscape:connector-curvature="0"
       id="path4329"
       style="fill:none;stroke:#000000;stroke-width:0.5;stroke-linecap:butt;stroke-linejoin:round;stroke-miterlimit:10;stroke-dasharray:none;stroke-opacity:1"
       d="m 441.75,68.6668 0,3.8332" /><path
       inkscape:connector-curvature="0"
       id="path4331"
       style="fill:none;stroke:#000000;stroke-width:0.5;stroke-linecap:butt;stroke-linejoin:round;stroke-miterlimit:10;stroke-dasharray:none;stroke-opacity:1"
       d="m 441.75,257.833 0,-3.75" /><g
       transform="scale(1,-1)"
       style="font-variant:normal;font-weight:normal;font-size:14px;font-family:Helvetica;-inkscape-font-specification:Helvetica;writing-mode:lr-tb;fill:#000000;fill-opacity:1;fill-rule:nonzero;stroke:none"
       id="text4335"><path
         d="m 445.07099,-59.847199 c 0,-1.68 -1.302,-2.912 -3.178,-2.912 -2.03,0 -3.206,1.036 -3.276,3.444 l 1.232,0 c 0.098,-1.666 0.784,-2.366 2.002,-2.366 1.12,0 1.96,0.798 1.96,1.862 0,0.784 -0.462,1.456 -1.344,1.96 l -1.288,0.728 c -2.072,1.176 -2.674,2.114 -2.786,4.298 l 6.608,0 0,-1.218 -5.222,0 c 0.126,-0.812 0.574,-1.33 1.792,-2.044 l 1.4,-0.756 c 1.386,-0.742 2.1,-1.778 2.1,-2.996 z"
         id="path4892"
         inkscape:connector-curvature="0" /><path
         d="m 411.37221,-31 -2.534,-3.794 2.464,-3.542 -1.316,0 -1.764,2.66 -1.764,-2.66 -1.33,0 2.45,3.598 -2.59,3.738 1.33,0 1.862,-2.814 1.834,2.814 1.358,0 z"
         id="path4894"
         inkscape:connector-curvature="0" /><path
         d="m 420.50021,-31 0,-9.926 -0.812,0 c -0.434,1.526 -0.714,1.736 -2.618,1.974 l 0,0.882 2.198,0 0,7.07 1.232,0 z"
         id="path4896"
         inkscape:connector-curvature="0" /><path
         d="m 430.52421,-35.774 c 0,-3.444 -1.092,-5.152 -3.248,-5.152 -2.142,0 -3.248,1.736 -3.248,5.068 0,3.346 1.12,5.068 3.248,5.068 2.1,0 3.248,-1.722 3.248,-4.984 z m -1.26,-0.112 c 0,2.814 -0.644,4.074 -2.016,4.074 -1.302,0 -1.96,-1.316 -1.96,-4.032 0,-2.716 0.658,-3.99 1.988,-3.99 1.33,0 1.988,1.288 1.988,3.948 z"
         id="path4898"
         inkscape:connector-curvature="0" /></g><g
       transform="scale(1,-1)"
       style="font-variant:normal;font-weight:normal;font-size:9.33333015px;font-family:Helvetica;-inkscape-font-specification:Helvetica;writing-mode:lr-tb;fill:#000000;fill-opacity:1;fill-rule:nonzero;stroke:none"
       id="text4341"><path
         d="m 435.98299,-41.682801 0,-0.634666 -4.18133,0 0,0.634666 4.18133,0 z"
         id="path4901"
         inkscape:connector-curvature="0" /><path
         d="m 441.34034,-41.589467 c 0,-0.802667 -0.32667,-1.269333 -1.12,-1.54 0.616,-0.242667 0.924,-0.672 0.924,-1.334666 0,-1.138666 -0.756,-1.82 -2.016,-1.82 -1.33466,0 -2.044,0.728 -2.072,2.137333 l 0.82134,0 c 0.0187,-0.98 0.42,-1.418666 1.25999,-1.418666 0.728,0 1.16667,0.429333 1.16667,1.129333 0,0.709333 -0.308,0.998666 -1.624,0.998666 l 0,0.690667 0.448,0 c 0.90533,0 1.372,0.429333 1.372,1.166666 0,0.830666 -0.51333,1.325333 -1.372,1.325333 -0.896,0 -1.33466,-0.448 -1.39066,-1.409333 l -0.82134,0 c 0.10267,1.474666 0.83067,2.137332 2.184,2.137332 1.36267,0 2.24,-0.811999 2.24,-2.062665 z"
         id="path4903"
         inkscape:connector-curvature="0" /></g><path
       inkscape:connector-curvature="0"
       id="path4345"
       style="fill:none;stroke:#000000;stroke-width:0.5;stroke-linecap:butt;stroke-linejoin:round;stroke-miterlimit:10;stroke-dasharray:none;stroke-opacity:1"
       d="m 63.4168,68.6668 3.75,0" /><path
       inkscape:connector-curvature="0"
       id="path4347"
       style="fill:none;stroke:#000000;stroke-width:0.5;stroke-linecap:butt;stroke-linejoin:round;stroke-miterlimit:10;stroke-dasharray:none;stroke-opacity:1"
       d="m 441.75,68.6668 -3.833,0" /><g
       transform="scale(1,-1)"
       style="font-variant:normal;font-weight:normal;font-size:14px;font-family:Helvetica;-inkscape-font-specification:Helvetica;writing-mode:lr-tb;fill:#000000;fill-opacity:1;fill-rule:nonzero;stroke:none"
       id="text4351"><path
         d="m 59.848,-68.274 c 0,-3.444 -1.092,-5.152 -3.248,-5.152 -2.142,0 -3.248,1.736 -3.248,5.068 0,3.346 1.12,5.068 3.248,5.068 2.1,0 3.248,-1.722 3.248,-4.984 z m -1.26,-0.112 c 0,2.814 -0.644,4.074 -2.016,4.074 -1.302,0 -1.96,-1.316 -1.96,-4.032 0,-2.716 0.658,-3.99 1.988,-3.99 1.33,0 1.988,1.288 1.988,3.948 z"
         id="path4906"
         inkscape:connector-curvature="0" /></g><path
       inkscape:connector-curvature="0"
       id="path4355"
       style="fill:none;stroke:#000000;stroke-width:0.5;stroke-linecap:butt;stroke-linejoin:round;stroke-miterlimit:10;stroke-dasharray:none;stroke-opacity:1"
       d="m 63.4168,116 3.75,0" /><path
       inkscape:connector-curvature="0"
       id="path4357"
       style="fill:none;stroke:#000000;stroke-width:0.5;stroke-linecap:butt;stroke-linejoin:round;stroke-miterlimit:10;stroke-dasharray:none;stroke-opacity:1"
       d="m 441.75,116 -3.833,0" /><g
       transform="scale(1,-1)"
       style="font-variant:normal;font-weight:normal;font-size:14px;font-family:Helvetica;-inkscape-font-specification:Helvetica;writing-mode:lr-tb;fill:#000000;fill-opacity:1;fill-rule:nonzero;stroke:none"
       id="text4361"><path
         d="m 48.181199,-115.607 c 0,-3.444 -1.092,-5.152 -3.248,-5.152 -2.142,0 -3.248,1.736 -3.248,5.068 0,3.346 1.12,5.068 3.248,5.068 2.1,0 3.248,-1.722 3.248,-4.984 z m -1.26,-0.112 c 0,2.814 -0.644,4.074 -2.016,4.074 -1.302,0 -1.96,-1.316 -1.96,-4.032 0,-2.716 0.658,-3.99 1.988,-3.99 1.33,0 1.988,1.288 1.988,3.948 z"
         id="path4909"
         inkscape:connector-curvature="0" /><path
         d="m 51.541199,-110.833 0,-1.456 -1.456,0 0,1.456 1.456,0 z"
         id="path4911"
         inkscape:connector-curvature="0" /><path
         d="m 59.941201,-114.123 c 0,-1.96 -1.302,-3.248 -3.206,-3.248 -0.7,0 -1.26,0.182 -1.834,0.602 l 0.392,-2.562 4.13,0 0,-1.218 -5.124,0 -0.742,5.194 1.134,0 c 0.574,-0.686 1.05,-0.924 1.82,-0.924 1.33,0 2.17,0.854 2.17,2.324 0,1.428 -0.826,2.24 -2.17,2.24 -1.078,0 -1.736,-0.546 -2.03,-1.666 l -1.232,0 c 0.406,1.974 1.526,2.758 3.29,2.758 2.002,0 3.402,-1.4 3.402,-3.5 z"
         id="path4913"
         inkscape:connector-curvature="0" /></g><path
       inkscape:connector-curvature="0"
       id="path4365"
       style="fill:none;stroke:#000000;stroke-width:0.5;stroke-linecap:butt;stroke-linejoin:round;stroke-miterlimit:10;stroke-dasharray:none;stroke-opacity:1"
       d="m 63.4168,163.25 3.75,0" /><path
       inkscape:connector-curvature="0"
       id="path4367"
       style="fill:none;stroke:#000000;stroke-width:0.5;stroke-linecap:butt;stroke-linejoin:round;stroke-miterlimit:10;stroke-dasharray:none;stroke-opacity:1"
       d="m 441.75,163.25 -3.833,0" /><g
       transform="scale(1,-1)"
       style="font-variant:normal;font-weight:normal;font-size:14px;font-family:Helvetica;-inkscape-font-specification:Helvetica;writing-mode:lr-tb;fill:#000000;fill-opacity:1;fill-rule:nonzero;stroke:none"
       id="text4371"><path
         d="m 57.608,-158.08299 0,-9.926 -0.812,0 c -0.434,1.526 -0.714,1.736 -2.618,1.974 l 0,0.882 2.198,0 0,7.07 1.232,0 z"
         id="path4916"
         inkscape:connector-curvature="0" /></g><path
       inkscape:connector-curvature="0"
       id="path4375"
       style="fill:none;stroke:#000000;stroke-width:0.5;stroke-linecap:butt;stroke-linejoin:round;stroke-miterlimit:10;stroke-dasharray:none;stroke-opacity:1"
       d="m 63.4168,210.583 3.75,0" /><path
       inkscape:connector-curvature="0"
       id="path4377"
       style="fill:none;stroke:#000000;stroke-width:0.5;stroke-linecap:butt;stroke-linejoin:round;stroke-miterlimit:10;stroke-dasharray:none;stroke-opacity:1"
       d="m 441.75,210.583 -3.833,0" /><g
       transform="scale(1,-1)"
       style="font-variant:normal;font-weight:normal;font-size:14px;font-family:Helvetica;-inkscape-font-specification:Helvetica;writing-mode:lr-tb;fill:#000000;fill-opacity:1;fill-rule:nonzero;stroke:none"
       id="text4381"><path
         d="m 45.941199,-205.41701 0,-9.926 -0.812,0 c -0.434,1.526 -0.714,1.736 -2.618,1.974 l 0,0.882 2.198,0 0,7.07 1.232,0 z"
         id="path4919"
         inkscape:connector-curvature="0" /><path
         d="m 51.541199,-205.41701 0,-1.456 -1.456,0 0,1.456 1.456,0 z"
         id="path4921"
         inkscape:connector-curvature="0" /><path
         d="m 59.941201,-208.70701 c 0,-1.96 -1.302,-3.248 -3.206,-3.248 -0.7,0 -1.26,0.182 -1.834,0.602 l 0.392,-2.562 4.13,0 0,-1.218 -5.124,0 -0.742,5.194 1.134,0 c 0.574,-0.686 1.05,-0.924 1.82,-0.924 1.33,0 2.17,0.854 2.17,2.324 0,1.428 -0.826,2.24 -2.17,2.24 -1.078,0 -1.736,-0.546 -2.03,-1.666 l -1.232,0 c 0.406,1.974 1.526,2.758 3.29,2.758 2.002,0 3.402,-1.4 3.402,-3.5 z"
         id="path4923"
         inkscape:connector-curvature="0" /></g><path
       inkscape:connector-curvature="0"
       id="path4385"
       style="fill:none;stroke:#000000;stroke-width:0.5;stroke-linecap:butt;stroke-linejoin:round;stroke-miterlimit:10;stroke-dasharray:none;stroke-opacity:1"
       d="m 63.4168,257.833 3.75,0" /><path
       inkscape:connector-curvature="0"
       id="path4387"
       style="fill:none;stroke:#000000;stroke-width:0.5;stroke-linecap:butt;stroke-linejoin:round;stroke-miterlimit:10;stroke-dasharray:none;stroke-opacity:1"
       d="m 441.75,257.833 -3.833,0" /><g
       transform="scale(1,-1)"
       style="font-variant:normal;font-weight:normal;font-size:14px;font-family:Helvetica;-inkscape-font-specification:Helvetica;writing-mode:lr-tb;fill:#000000;fill-opacity:1;fill-rule:nonzero;stroke:none"
       id="text4391"><path
         d="m 59.904,-259.68101 c 0,-1.68 -1.302,-2.912 -3.178,-2.912 -2.03,0 -3.206,1.036 -3.276,3.444 l 1.232,0 c 0.098,-1.666 0.784,-2.366 2.002,-2.366 1.12,0 1.96,0.798 1.96,1.862 0,0.784 -0.462,1.456 -1.344,1.96 l -1.288,0.728 c -2.072,1.176 -2.674,2.114 -2.786,4.298 l 6.608,0 0,-1.218 -5.222,0 c 0.126,-0.812 0.574,-1.33 1.792,-2.044 l 1.4,-0.756 c 1.386,-0.742 2.1,-1.778 2.1,-2.996 z"
         id="path4926"
         inkscape:connector-curvature="0" /><path
         d="m 70.038801,-262.3334 -2.534,-3.794 2.464,-3.542 -1.316,0 -1.764,2.66 -1.764,-2.66 -1.33,0 2.45,3.598 -2.59,3.738 1.33,0 1.862,-2.814 1.834,2.814 1.358,0 z"
         id="path4928"
         inkscape:connector-curvature="0" /><path
         d="m 79.1668,-262.3334 0,-9.926 -0.812,0 c -0.434,1.526 -0.714,1.736 -2.618,1.974 l 0,0.882 2.198,0 0,7.07 1.232,0 z"
         id="path4930"
         inkscape:connector-curvature="0" /><path
         d="m 89.190804,-267.1074 c 0,-3.444 -1.092,-5.152 -3.248,-5.152 -2.142,0 -3.248,1.736 -3.248,5.068 0,3.346 1.12,5.068 3.248,5.068 2.1,0 3.248,-1.722 3.248,-4.984 z m -1.26,-0.112 c 0,2.814 -0.644,4.074 -2.016,4.074 -1.302,0 -1.96,-1.316 -1.96,-4.032 0,-2.716 0.658,-3.99 1.988,-3.99 1.33,0 1.988,1.288 1.988,3.948 z"
         id="path4932"
         inkscape:connector-curvature="0" /></g><g
       transform="scale(1,-1)"
       style="font-variant:normal;font-weight:normal;font-size:9.33333015px;font-family:Helvetica;-inkscape-font-specification:Helvetica;writing-mode:lr-tb;fill:#000000;fill-opacity:1;fill-rule:nonzero;stroke:none"
       id="text4397"><path
         d="m 94.649197,-273.01621 0,-0.63467 -4.181332,0 0,0.63467 4.181332,0 z"
         id="path4935"
         inkscape:connector-curvature="0" /><path
         d="m 100.00653,-272.92288 c 0,-0.80267 -0.326665,-1.26933 -1.119998,-1.54 0.616,-0.24267 0.924,-0.672 0.924,-1.33467 0,-1.13866 -0.756,-1.81999 -2.015999,-1.81999 -1.334667,0 -2.044,0.728 -2.072,2.13733 l 0.821333,0 c 0.01867,-0.98 0.42,-1.41867 1.26,-1.41867 0.728,0 1.166666,0.42933 1.166666,1.12933 0,0.70934 -0.308,0.99867 -1.623999,0.99867 l 0,0.69067 0.448,0 c 0.905333,0 1.371999,0.42933 1.371999,1.16666 0,0.83067 -0.513333,1.32534 -1.371999,1.32534 -0.896,0 -1.334667,-0.448 -1.390666,-1.40934 l -0.821334,0 c 0.102667,1.47467 0.830667,2.13734 2.184,2.13734 1.362666,0 2.239997,-0.812 2.239997,-2.06267 z"
         id="path4937"
         inkscape:connector-curvature="0" /></g><path
       inkscape:connector-curvature="0"
       id="path4401"
       style="fill:none;stroke:#000000;stroke-width:0.5;stroke-linecap:butt;stroke-linejoin:round;stroke-miterlimit:10;stroke-dasharray:none;stroke-opacity:1"
       d="m 63.4168,68.6668 378.3332,0" /><path
       inkscape:connector-curvature="0"
       id="path4403"
       style="fill:none;stroke:#000000;stroke-width:0.5;stroke-linecap:butt;stroke-linejoin:round;stroke-miterlimit:10;stroke-dasharray:none;stroke-opacity:1"
       d="m 63.4168,257.833 378.3332,0" /><path
       inkscape:connector-curvature="0"
       id="path4405"
       style="fill:none;stroke:#000000;stroke-width:0.5;stroke-linecap:butt;stroke-linejoin:round;stroke-miterlimit:10;stroke-dasharray:none;stroke-opacity:1"
       d="m 63.4168,68.6668 0,189.1662" /><path
       inkscape:connector-curvature="0"
       id="path4407"
       style="fill:none;stroke:#000000;stroke-width:0.5;stroke-linecap:butt;stroke-linejoin:round;stroke-miterlimit:10;stroke-dasharray:none;stroke-opacity:1"
       d="m 441.75,68.6668 0,189.1662" /><path
       inkscape:connector-curvature="0"
       id="path4417"
       style="fill:none;stroke:#0000ff;stroke-width:2;stroke-linecap:butt;stroke-linejoin:round;stroke-miterlimit:10;stroke-dasharray:none;stroke-opacity:1"
       d="m 385.083,201.25 0.25,0.25 0.167,0.167 0.167,0.166 0.25,0.25 0.166,0.167 0.167,0.167 0.167,0.166 0.25,0.25 0.166,0.167 0.167,0.167 0.167,0.166 0.25,0.25 0.166,0.167 0.167,0.167 0.167,0.166 0.25,0.25 0.166,0.167 0.167,0.167 0.25,0.25 0.167,0.166 0.166,0.167 0.167,0.167 0.25,0.25 0.167,0.166 0.166,0.167 0.167,0.167 0.25,0.25 0.167,0.166 0.166,0.167 0.25,0.25 0.167,0.167 0.167,0.166 0.166,0.167 0.25,0.25 0.167,0.167 0.167,0.166 0.166,0.167 0.25,0.25 0.167,0.167 0.167,0.166 0.25,0.25 0.166,0.167 0.167,0.167 0.167,0.166 0.25,0.25 0.166,0.167 0.167,0.167 0.167,0.166 0.25,0.25 0.166,0.167 0.167,0.167 0.25,0.25 0.167,0.166 0.166,0.167 0.167,0.167 0.25,0.25 0.167,0.166 0.166,0.167 0.167,0.167 0.25,0.25 0.167,0.166 0.166,0.167 0.25,0.25 0.167,0.167 0.167,0.166 0.166,0.167 0.25,0.25 0.167,0.167 0.167,0.166 0.166,0.167 0.25,0.25 0.167,0.167 0.167,0.166 0.166,0.167 0.25,0.25 0.167,0.167 0.167,0.166 0.25,0.25 0.166,0.167 0.167,0.167 0.167,0.166 0.25,0.25 0.166,0.167 0.167,0.167 0.167,0.166 0.25,0.25 0.166,0.167 0.167,0.167 0.25,0.25 0.167,0.166 0.166,0.167 0.167,0.167 0.25,0.25 0.167,0.166 0.166,0.167 0.167,0.167 0.25,0.25 0.167,0.166 0.166,0.167 0.25,0.25 0.167,0.167 0.167,0.166 0.166,0.167 0.25,0.25 0.167,0.167 0.167,0.166 0.166,0.167 0.25,0.25 0.167,0.167 0.167,0.166 0.25,0.25 0.166,0.167 0.167,0.167 0.167,0.166 0.25,0.25 0.166,0.167 0.167,0.167 0.167,0.166 0.25,0.25 0.166,0.167 0.167,0.167 0.25,0.25 0.167,0.166 0.166,0.167 0.167,0.167 0.25,0.25 0.167,0.166 0.166,0.167 0.167,0.167 0.25,0.25 0.167,0.166 0.166,0.167 0.167,0.167 0.25,0.25 0.167,0.166 0.166,0.167 0.25,0.25 0.167,0.167 0.167,0.166 0.166,0.167 0.25,0.25 0.167,0.167 0.167,0.166 0.166,0.167 0.25,0.25 0.167,0.167 0.167,0.166 0.25,0.25 0.166,0.167 0.167,0.167 0.167,0.166 0.25,0.25 0.166,0.167 0.167,0.167 0.167,0.166 0.25,0.25 0.166,0.167 0.167,0.167 0.25,0.25 0.167,0.166 0.166,0.167 0.167,0.167 0.25,0.25 0.167,0.166 0.166,0.167 0.167,0.167 0.25,0.25 0.167,0.166 0.166,0.167 0.25,0.25 0.167,0.167 0.167,0.166 0.166,0.167 0.25,0.25 0.167,0.167 0.167,0.166 0.166,0.167 0.25,0.25 0.167,0.167 0.167,0.166 0.25,0.25 0.166,0.167 0.167,0.167 0.167,0.166 0.25,0.25 0.166,0.167 0.167,0.167 0.167,0.166 0.25,0.25 0.166,0.167 0.167,0.167 0.167,0.166 0.25,0.25 0.166,0.167 0.167,0.167 0.25,0.25 0.167,0.166 0.166,0.167 0.167,0.167 0.25,0.25 0.167,0.166 0.166,0.167 0.167,0.167 0.25,0.25 0.167,0.166 0.166,0.167 0.25,0.25 0.167,0.167 0.167,0.166 0.166,0.167 0.25,0.25 0.167,0.167 0.167,0.166 0.166,0.167 0.25,0.25 0.167,0.167 0.167,0.166 0.25,0.25 0.166,0.167 0.167,0.167 0.167,0.166 0.25,0.25 0.166,0.167 0.167,0.167 0.167,0.166 0.25,0.25 0.166,0.167 0.167,0.167 0.25,0.25 0.167,0.166 0.166,0.167 0.167,0.167 0.25,0.25 0.167,0.166 0.166,0.167 0.167,0.167 0.25,0.25 0.167,0.166 0.166,0.167 0.25,0.25 0.167,0.167 0.167,0.166 0.166,0.167 0.25,0.25 0.167,0.167 0.167,0.166 0.166,0.167 0.25,0.25 0.167,0.167 0.167,0.166 0.166,0.167 0.25,0.25 0.167,0.167 0.167,0.166 0.25,0.25 0.166,0.167 0.167,0.167 0.167,0.166 0.25,0.25 0.166,0.167 0.167,0.167 0.167,0.166 0.25,0.25 0.166,0.167 0.167,0.167 0.25,0.25 0.167,0.166 0.166,0.167 0.167,0.167 0.25,0.25 0.167,0.166 0.166,0.167 0.167,0.167 0.25,0.25 0.167,0.166 0.166,0.167 0.25,0.25 0.167,0.167 0.167,0.166 0.166,0.167 0.25,0.25 0.167,0.167 0.167,0.166 0.166,0.167 0.25,0.25 0.167,0.167 0.167,0.166 0.25,0.25 0.166,0.167 0.167,0.167 0.167,0.166 0.25,0.25 0.166,0.167 0.167,0.167 0.167,0.166 0.25,0.25 0.166,0.167 0.167,0.167 0.25,0.166" /><path
       inkscape:connector-curvature="0"
       id="path4419"
       style="fill:none;stroke:#0000ff;stroke-width:2;stroke-linecap:butt;stroke-linejoin:round;stroke-miterlimit:10;stroke-dasharray:none;stroke-opacity:1"
       d="m 328.5,141.75 0.25,0.25 0.167,0.25 0.166,0.25 0.167,0.25 0.25,0.25 0.167,0.167 0.166,0.25 0.25,0.25 0.167,0.25 0.167,0.25 0.166,0.25 0.25,0.25 0.167,0.166 0.167,0.25 0.166,0.25 0.25,0.25 0.167,0.25 0.167,0.25 0.25,0.167 0.166,0.25 0.167,0.25 0.167,0.25 0.25,0.25 0.166,0.25 0.167,0.167 0.167,0.25 0.25,0.25 0.166,0.25 0.167,0.166 0.167,0.25 0.25,0.25 0.166,0.25 0.167,0.167 0.25,0.25 0.167,0.25 0.166,0.25 0.167,0.167 0.25,0.25 0.167,0.25 0.166,0.25 0.167,0.166 0.25,0.25 0.167,0.25 0.166,0.167 0.25,0.25 0.167,0.25 0.167,0.167 0.166,0.25 0.25,0.25 0.167,0.166 0.167,0.25 0.166,0.25 0.25,0.167 0.167,0.25 0.167,0.25 0.25,0.167 0.166,0.25 0.167,0.166 0.167,0.25 0.25,0.167 0.166,0.25 0.167,0.25 0.167,0.167 0.25,0.25 0.166,0.166 0.167,0.25 0.25,0.167 0.167,0.25 0.166,0.167 0.167,0.25 0.25,0.166 0.167,0.25 0.166,0.167 0.167,0.25 0.25,0.167 0.167,0.25 0.166,0.166 0.25,0.25 0.167,0.167 0.167,0.25 0.166,0.167 0.25,0.166 0.167,0.25 0.167,0.167 0.166,0.25 0.25,0.167 0.167,0.166 0.167,0.25 0.166,0.167 0.25,0.167 0.167,0.25 0.167,0.166 0.25,0.167 0.166,0.25 0.167,0.167 0.167,0.166 0.25,0.25 0.166,0.167 0.167,0.167 0.167,0.166 0.25,0.25 0.166,0.167 0.167,0.167 0.25,0.25 0.167,0.166 0.166,0.167 0.167,0.167 0.25,0.25 0.167,0.166 0.166,0.167 0.167,0.167 0.25,0.25 0.167,0.166 0.166,0.167 0.25,0.25 0.167,0.167 0.167,0.166 0.166,0.167 0.25,0.25 0.167,0.167 0.167,0.166 0.166,0.167 0.25,0.25 0.167,0.167 0.167,0.166 0.25,0.25 0.166,0.167 0.167,0.167 0.167,0.166 0.25,0.25 0.166,0.167 0.167,0.167 0.167,0.166 0.25,0.25 0.166,0.167 0.167,0.167 0.25,0.25 0.167,0.166 0.166,0.167 0.167,0.167 0.25,0.25 0.167,0.166 0.166,0.167 0.167,0.167 0.25,0.25 0.167,0.166 0.166,0.167 0.167,0.167 0.25,0.25 0.167,0.166 0.166,0.167 0.25,0.25 0.167,0.167 0.167,0.166 0.166,0.167 0.25,0.25 0.167,0.167 0.167,0.166 0.166,0.167 0.25,0.25 0.167,0.167 0.167,0.166 0.25,0.25 0.166,0.167 0.167,0.167 0.167,0.166 0.25,0.25 0.166,0.167 0.167,0.167 0.167,0.166 0.25,0.25 0.166,0.167 0.167,0.167 0.25,0.25 0.167,0.166 0.166,0.167 0.167,0.167 0.25,0.25 0.167,0.166 0.166,0.167 0.167,0.167 0.25,0.25 0.167,0.166 0.166,0.167 0.25,0.25 0.167,0.167 0.167,0.166 0.166,0.167 0.25,0.25 0.167,0.167 0.167,0.166 0.166,0.167 0.25,0.25 0.167,0.167 0.167,0.166 0.25,0.25 0.166,0.167 0.167,0.167 0.167,0.166 0.25,0.25 0.166,0.167 0.167,0.167 0.167,0.166 0.25,0.25 0.166,0.167 0.167,0.167 0.167,0.166 0.25,0.25 0.166,0.167 0.167,0.167 0.25,0.25 0.167,0.166 0.166,0.167 0.167,0.167 0.25,0.25 0.167,0.166 0.166,0.167 0.167,0.167 0.25,0.25 0.167,0.166 0.166,0.167 0.25,0.25 0.167,0.167 0.167,0.166 0.166,0.167 0.25,0.25 0.167,0.167 0.167,0.166 0.166,0.167 0.25,0.25 0.167,0.167 0.167,0.166 0.25,0.25 0.166,0.167 0.167,0.167 0.167,0.166 0.25,0.25 0.166,0.167 0.167,0.167 0.167,0.166 0.25,0.25 0.166,0.167 0.167,0.167 0.25,0.25 0.167,0.166 0.166,0.167 0.167,0.167 0.25,0.25 0.167,0.166 0.166,0.167 0.167,0.167 0.25,0.25 0.167,0.166 0.166,0.167 0.25,0.25 0.167,0.167 0.167,0.166 0.166,0.167 0.25,0.25 0.167,0.167 0.167,0.166 0.166,0.167 0.25,0.25 0.167,0.167 0.167,0.166 0.166,0.167 0.25,0.25 0.167,0.167 0.167,0.166 0.25,0.25 0.166,0.167 0.167,0.167 0.167,0.166 0.25,0.25 0.166,0.167 0.167,0.167 0.167,0.166 0.25,0.25 0.166,0.167 0.167,0.167 0.25,0.25 0.167,0.166 0.166,0.167 0.167,0.167 0.25,0.25 0.167,0.166 0.166,0.167 0.167,0.167 0.25,0.25 0.167,0.166 0.166,0.167 0.25,0.25 0.167,0.167 0.167,0.166 0.166,0.167 0.25,0.25 0.167,0.167 0.167,0.166 0.166,0.167" /><path
       inkscape:connector-curvature="0"
       id="path4421"
       style="fill:none;stroke:#0000ff;stroke-width:2;stroke-linecap:butt;stroke-linejoin:round;stroke-miterlimit:10;stroke-dasharray:none;stroke-opacity:1"
       d="m 271.917,75.8332 0.25,0.1668 0.166,0.0832 0.167,0.1668 0.167,0.1668 0.25,0.0832 0.166,0.1668 0.167,0.1664 0.167,0.0836 0.25,0.1664 0.166,0.1668 0.167,0.0832 0.25,0.1668 0.167,0.1668 0.166,0.0832 0.167,0.1668 0.25,0.1664 0.167,0.1668 0.166,0.1668 0.167,0.0832 0.25,0.1668 0.167,0.1664 0.166,0.1668 0.25,0.1668 0.167,0.1664 0.167,0.0836 0.166,0.1664 0.25,0.1668 0.167,0.1668 0.167,0.1664 0.166,0.1668 0.25,0.1668 0.167,0.1664 0.167,0.1668 0.25,0.1668 0.166,0.1664 0.167,0.1668 0.167,0.1668 0.25,0.1664 0.166,0.1668 0.167,0.1668 0.167,0.1664 0.25,0.1668 0.166,0.1668 0.167,0.1664 0.167,0.1668 0.25,0.1668 0.166,0.1664 0.167,0.1668 0.25,0.1668 0.167,0.25 0.166,0.1664 0.167,0.1668 0.25,0.1668 0.167,0.1664 0.166,0.1668 0.167,0.25 0.25,0.1668 0.167,0.1664 0.166,0.1668 0.25,0.1668 0.167,0.25 0.167,0.1664 0.166,0.1668 0.25,0.1668 0.167,0.25 0.167,0.1664 0.166,0.1668 0.25,0.25 0.167,0.1668 0.167,0.1664 0.25,0.25 0.166,0.1668 0.167,0.1668 0.167,0.25 0.25,0.1664 0.166,0.1668 0.167,0.25 0.167,0.1668 0.25,0.25 0.166,0.1664 0.167,0.1668 0.25,0.25 0.167,0.1668 0.166,0.25 0.167,0.1664 0.25,0.25 0.167,0.1668 0.166,0.1668 0.167,0.25 0.25,0.1664 0.167,0.25 0.166,0.1668 0.25,0.25 0.167,0.1668 0.167,0.25 0.166,0.25 0.25,0.1664 0.167,0.25 0.167,0.1668 0.166,0.25 0.25,0.1668 0.167,0.25 0.167,0.1664 0.166,0.25 0.25,0.25 0.167,0.1668 0.167,0.25 0.25,0.1668 0.166,0.25 0.167,0.25 0.167,0.1664 0.25,0.25 0.166,0.25 0.167,0.1668 0.167,0.25 0.25,0.25 0.166,0.1668 0.167,0.25 0.25,0.25 0.167,0.1664 0.166,0.25 0.167,0.25 0.25,0.1668 0.167,0.25 0.166,0.25 0.167,0.25 0.25,0.1668 0.167,0.25 0.166,0.25 0.25,0.2502 0.167,0.166 0.167,0.25 0.166,0.25 0.25,0.25 0.167,0.167 0.167,0.25 0.166,0.25 0.25,0.25 0.167,0.25 0.167,0.167 0.25,0.25 0.166,0.25 0.167,0.25 0.167,0.25 0.25,0.166 0.166,0.25 0.167,0.25 0.167,0.25 0.25,0.25 0.166,0.25 0.167,0.167 0.25,0.25 0.167,0.25 0.166,0.25 0.167,0.25 0.25,0.25 0.167,0.25 0.166,0.25 0.167,0.167 0.25,0.25 0.167,0.25 0.166,0.25 0.167,0.25 0.25,0.25 0.167,0.25 0.166,0.25 0.25,0.25 0.167,0.25 0.167,0.166 0.166,0.25 0.25,0.25 0.167,0.25 0.167,0.25 0.166,0.25 0.25,0.25 0.167,0.25 0.167,0.25 0.25,0.25 0.166,0.25 0.167,0.25 0.167,0.25 0.25,0.25 0.166,0.25 0.167,0.25 0.167,0.25 0.25,0.25 0.166,0.25 0.167,0.25 0.25,0.25 0.167,0.25 0.166,0.25 0.167,0.25 0.25,0.25 0.167,0.25 0.166,0.25 0.167,0.167 0.25,0.25 0.167,0.25 0.166,0.25 0.25,0.25 0.167,0.25 0.167,0.25 0.166,0.333 0.25,0.25 0.167,0.25 0.167,0.25 0.166,0.25 0.25,0.25 0.167,0.25 0.167,0.25 0.25,0.25 0.166,0.25 0.167,0.25 0.167,0.25 0.25,0.25 0.166,0.25 0.167,0.25 0.167,0.25 0.25,0.25 0.166,0.25 0.167,0.25 0.167,0.25 0.25,0.25 0.166,0.25 0.167,0.25 0.25,0.25 0.167,0.25 0.166,0.25 0.167,0.25 0.25,0.25 0.167,0.25 0.166,0.25 0.167,0.25 0.25,0.25 0.167,0.25 0.166,0.25 0.25,0.25 0.167,0.25 0.167,0.25 0.166,0.25 0.25,0.25 0.167,0.25 0.167,0.25 0.166,0.25 0.25,0.25 0.167,0.25 0.167,0.334 0.25,0.25 0.166,0.25 0.167,0.25 0.167,0.25 0.25,0.25 0.166,0.25 0.167,0.25 0.167,0.25 0.25,0.25 0.166,0.25 0.167,0.25 0.25,0.25 0.167,0.25 0.166,0.25 0.167,0.25 0.25,0.25 0.167,0.25 0.166,0.25 0.167,0.25 0.25,0.25 0.167,0.25 0.166,0.25 0.167,0.25 0.25,0.25 0.167,0.25 0.166,0.25 0.25,0.25 0.167,0.25 0.167,0.25 0.166,0.166 0.25,0.25 0.167,0.25 0.167,0.25 0.166,0.25 0.25,0.25 0.167,0.25 0.167,0.25 0.25,0.25 0.166,0.25 0.167,0.25 0.167,0.25 0.25,0.25 0.166,0.25 0.167,0.25 0.167,0.25 0.25,0.25 0.166,0.25 0.167,0.167 0.25,0.25 0.167,0.25 0.166,0.25 0.167,0.25" /><path
       inkscape:connector-curvature="0"
       id="path4423"
       style="fill:none;stroke:#0000ff;stroke-width:2;stroke-linecap:butt;stroke-linejoin:round;stroke-miterlimit:10;stroke-dasharray:none;stroke-opacity:1"
       d="M 215.333,92.1668 215.5,92 l 0.25,-0.25 0.167,-0.1668 0.166,-0.25 0.25,-0.1664 0.167,-0.25 0.167,-0.1668 0.166,-0.1668 0.25,-0.25 0.167,-0.1664 0.167,-0.25 0.166,-0.1668 0.25,-0.25 0.167,-0.1668 0.167,-0.1664 0.25,-0.25 0.166,-0.1668 0.167,-0.25 0.167,-0.1668 0.25,-0.1664 0.166,-0.25 0.167,-0.1668 0.167,-0.1668 0.25,-0.25 0.166,-0.1664 0.167,-0.1668 0.25,-0.25 0.167,-0.1668 0.166,-0.1664 0.167,-0.25 0.25,-0.1668 0.167,-0.1668 0.166,-0.1664 0.167,-0.25 0.25,-0.1668 0.167,-0.1668 0.166,-0.1664 0.25,-0.1668 0.167,-0.25 0.167,-0.1668 0.166,-0.1664 0.25,-0.1668 0.167,-0.1668 0.167,-0.1664 0.166,-0.25 0.25,-0.1668 0.167,-0.1668 0.167,-0.1664 0.25,-0.1668 0.166,-0.1668 0.167,-0.1664 0.167,-0.1668 0.25,-0.1668 0.166,-0.1664 0.167,-0.1668 0.167,-0.1668 0.25,-0.1664 0.166,-0.1668 0.167,-0.1668 0.167,-0.1664 0.25,-0.1668 0.166,-0.1668 0.167,-0.1664 0.25,-0.1668 0.167,-0.1668 0.166,-0.1664 0.167,-0.1668 0.25,-0.1668 0.167,-0.1664 0.166,-0.0836 0.167,-0.1664 L 229,79 l 0.167,-0.1668 0.166,-0.1664 0.25,-0.1668 0.167,-0.0832 0.167,-0.1668 0.166,-0.1668 0.25,-0.1664 0.167,-0.1668 0.167,-0.0832 0.166,-0.1668 0.25,-0.1668 0.167,-0.0832 0.167,-0.1668 0.25,-0.1664 0.166,-0.0836 0.167,-0.1664 0.167,-0.1668 0.25,-0.0832 0.166,-0.1668 0.167,-0.1668 0.167,-0.0832 0.25,-0.1668 0.166,-0.0832 0.167,-0.1668 0.25,-0.0832 0.167,-0.1668 0.166,-0.1664 0.167,-0.0836 0.25,-0.1664 0.167,-0.0836 0.166,-0.0832 0.167,-0.1668 0.25,-0.0832 0.167,-0.1668 0.166,-0.0832 0.25,-0.1668 L 236,74 l 0.167,-0.0832 0.166,-0.1668 0.25,-0.0832 0.167,-0.0836 0.167,-0.1664 0.166,-0.0836 0.25,-0.0832 0.167,-0.1668 0.167,-0.0832 0.166,-0.0832 0.25,-0.0836 0.167,-0.1664 0.167,-0.0836 0.25,-0.0832 0.166,-0.0832 0.167,-0.0836 0.167,-0.1664 0.25,-0.0836 0.166,-0.0832 0.167,-0.0832 0.167,-0.0836 0.25,-0.0832 0.166,-0.0832 0.167,-0.0836 0.25,-0.0832 0.167,-0.0832 0.166,-0.0836 0.167,-0.0832 0.25,-0.0832 0.167,-0.0836 L 241.833,71 242,70.9168 l 0.25,-0.0836 0.167,-0.0832 0.166,-0.0832 0.25,-0.0836 0.167,0 0.167,-0.0832 0.166,-0.0832 0.25,-0.0836 0.167,-0.0832 0.167,-0.0832 0.166,0 0.25,-0.0836 L 244.5,70 l 0.167,0 0.25,-0.0832 0.166,-0.0836 0.167,-0.0832 0.167,0 0.25,-0.0832 0.166,0 0.167,-0.0836 0.167,-0.0832 0.25,0 0.166,-0.0832 0.167,0 0.25,-0.0836 0.167,0 0.166,-0.0832 0.167,0 0.25,-0.0832 0.167,0 0.166,-0.0836 0.417,0 0.167,-0.0832 0.333,0 0.25,-0.0832 0.333,0 0.25,-0.0836 0.5,0 0.25,-0.0832 3.917,0 0.25,0.0832 0.5,0 0.25,0.0836 0.333,0 0.25,0.0832 0.334,0 0.166,0.0832 0.417,0 0.167,0.0836 0.166,0 0.25,0.0832 0.167,0 0.167,0.0832 0.166,0 0.25,0.0836 0.167,0 0.167,0.0832 0.25,0 0.166,0.0832 0.167,0.0836 0.167,0 0.25,0.0832 0.166,0 0.167,0.0832 0.167,0.0836 0.25,0.0832 0.166,0 0.167,0.0832 0.25,0.0836 0.167,0 0.166,0.0832 0.167,0.0832 0.25,0.0836 0.167,0.0832 0.166,0.0832 0.167,0 0.25,0.0836 0.167,0.0832 0.166,0.0832 0.25,0.0836 0.167,0.0832 0.167,0.0832 0.166,0.0836 0.25,0.0832 0.167,0.0832 0.167,0.0836 0.166,0.0832 0.25,0.0832 0.167,0.0836 0.167,0.0832 0.25,0.0832 0.166,0.0836 0.167,0.0832 0.167,0.0832 0.25,0.0836 0.166,0.1664 0.167,0.0836 0.167,0.0832 0.25,0.0832 0.166,0.0836 0.167,0.1664 0.25,0.0836 0.167,0.0832 0.166,0.0832 0.167,0.1668 0.25,0.0832 0.167,0.0836 0.166,0.1664 0.167,0.0836 0.25,0.0832 0.167,0.1668 0.166,0.0832 0.167,0.0832 0.25,0.1668 0.167,0.0832 0.166,0.1668 0.25,0.0832 0.167,0.1668 0.167,0.0832 0.166,0.0836 0.25,0.1664 0.167,0.0836 0.167,0.1664 0.166,0.1668 0.25,0.0832 0.167,0.1668 0.167,0.0832" /><path
       inkscape:connector-curvature="0"
       id="path4425"
       style="fill:none;stroke:#0000ff;stroke-width:2;stroke-linecap:butt;stroke-linejoin:round;stroke-miterlimit:10;stroke-dasharray:none;stroke-opacity:1"
       d="m 158.75,162.5 0.167,-0.25 0.25,-0.167 0.166,-0.166 0.167,-0.25 0.25,-0.167 0.167,-0.167 0.166,-0.25 0.167,-0.166 0.25,-0.167 0.167,-0.25 0.166,-0.167 0.167,-0.25 0.25,-0.166 0.167,-0.167 0.166,-0.25 0.167,-0.167 0.25,-0.25 0.167,-0.166 0.166,-0.25 0.25,-0.167 0.167,-0.25 0.167,-0.167 0.166,-0.25 0.25,-0.166 0.167,-0.25 0.167,-0.167 0.166,-0.25 0.25,-0.167 0.167,-0.25 0.167,-0.166 0.25,-0.25 0.166,-0.167 0.167,-0.25 0.167,-0.25 0.25,-0.167 0.166,-0.25 0.167,-0.166 0.167,-0.25 0.25,-0.167 0.166,-0.25 0.167,-0.25 0.25,-0.167 0.167,-0.25 0.166,-0.25 0.167,-0.166 0.25,-0.25 0.167,-0.25 0.166,-0.167 0.167,-0.25 0.25,-0.25 0.167,-0.167 0.166,-0.25 0.25,-0.25 0.167,-0.166 0.167,-0.25 0.166,-0.25 0.25,-0.25 0.167,-0.167 0.167,-0.25 0.166,-0.25 0.25,-0.25 0.167,-0.167 0.167,-0.25 0.25,-0.25 0.166,-0.25 0.167,-0.166 0.167,-0.25 0.25,-0.25 0.166,-0.25 0.167,-0.167 0.167,-0.25 0.25,-0.25 0.166,-0.25 0.167,-0.25 0.167,-0.25 0.25,-0.167 0.166,-0.25 0.167,-0.25 0.25,-0.25 0.167,-0.25 0.166,-0.25 0.167,-0.166 0.25,-0.25 0.167,-0.25 0.166,-0.25 0.167,-0.25 0.25,-0.25 0.167,-0.25 0.166,-0.167 0.25,-0.25 0.167,-0.25 0.167,-0.25 0.166,-0.25 0.25,-0.25 0.167,-0.25 0.167,-0.25 0.166,-0.25 0.25,-0.25 0.167,-0.167 0.167,-0.25 0.25,-0.25 0.166,-0.25 0.167,-0.25 0.167,-0.25 0.25,-0.25 0.166,-0.25 0.167,-0.25 0.167,-0.25 0.25,-0.25 0.166,-0.25 0.167,-0.25 0.25,-0.25 0.167,-0.25 0.166,-0.25 0.167,-0.25 0.25,-0.25 0.167,-0.166 0.166,-0.25 0.167,-0.25 0.25,-0.25 0.167,-0.25 0.166,-0.25 0.25,-0.25 0.167,-0.25 0.167,-0.25 0.166,-0.25 0.25,-0.25 0.167,-0.25 0.167,-0.25 0.166,-0.25 0.25,-0.25 0.167,-0.25 0.167,-0.25 0.166,-0.25 0.25,-0.25 0.167,-0.25 0.167,-0.25 0.25,-0.25 0.166,-0.25 0.167,-0.25 0.167,-0.25 0.25,-0.25 0.166,-0.25 0.167,-0.25 0.167,-0.25 0.25,-0.25 0.166,-0.334 0.167,-0.25 0.25,-0.25 0.167,-0.25 0.166,-0.25 0.167,-0.25 0.25,-0.25 0.167,-0.25 0.166,-0.25 0.167,-0.25 0.25,-0.25 0.167,-0.25 0.166,-0.25 0.25,-0.25 0.167,-0.25 0.167,-0.25 0.166,-0.25 0.25,-0.25 0.167,-0.25 0.167,-0.25 0.166,-0.25 0.25,-0.25 0.167,-0.25 0.167,-0.25 0.25,-0.25 0.166,-0.25 0.167,-0.25 0.167,-0.25 0.25,-0.25 0.166,-0.25 0.167,-0.25 0.167,-0.25 0.25,-0.25 0.166,-0.25 0.167,-0.25 0.167,-0.25 0.25,-0.25 0.166,-0.25 0.167,-0.25 0.25,-0.25 0.167,-0.25 0.166,-0.25 0.167,-0.25 0.25,-0.25 0.167,-0.333 0.166,-0.25 0.167,-0.25 0.25,-0.25 0.167,-0.25 0.166,-0.25 0.25,-0.25 0.167,-0.167 0.167,-0.25 0.166,-0.25 0.25,-0.25 0.167,-0.25 0.167,-0.25 0.166,-0.25 0.25,-0.25 0.167,-0.25 0.167,-0.25 0.25,-0.25 0.166,-0.25 0.167,-0.25 0.167,-0.25 0.25,-0.25 0.166,-0.25 0.167,-0.25 0.167,-0.25 0.25,-0.25 0.166,-0.25 0.167,-0.25 0.25,-0.25 0.167,-0.25 0.166,-0.25 0.167,-0.25 0.25,-0.25 0.167,-0.25 0.166,-0.166 0.167,-0.25 0.25,-0.25 0.167,-0.25 0.166,-0.25 0.25,-0.25 0.167,-0.25 0.167,-0.25 0.166,-0.25 0.25,-0.25 0.167,-0.167 0.167,-0.25 0.166,-0.25 0.25,-0.25 0.167,-0.25 0.167,-0.25 0.166,-0.25 0.25,-0.25 0.167,-0.167 0.167,-0.25 0.25,-0.25 0.166,-0.25 0.167,-0.25 0.167,-0.25 0.25,-0.166 0.166,-0.25 0.167,-0.25 0.167,-0.25 0.25,-0.25 0.166,-0.167 0.167,-0.25 0.25,-0.25 0.167,-0.25 0.166,-0.25 0.167,-0.167 0.25,-0.25 0.167,-0.25 0.166,-0.25 0.167,-0.166 0.25,-0.2502 0.167,-0.25 0.166,-0.25 0.25,-0.1668 0.167,-0.25 0.167,-0.25 0.166,-0.25 0.25,-0.1668 0.167,-0.25 0.167,-0.25 0.166,-0.1664 0.25,-0.25 0.167,-0.25 0.167,-0.1668 0.25,-0.25 0.166,-0.25 0.167,-0.1668 0.167,-0.25 0.25,-0.25 0.166,-0.1664 0.167,-0.25 0.167,-0.25 0.25,-0.1668 0.166,-0.25 0.167,-0.1668 0.25,-0.25 0.167,-0.25 0.166,-0.1664 0.167,-0.25 0.25,-0.1668 0.167,-0.25 0.166,-0.1668 0.167,-0.25 0.25,-0.1664 0.167,-0.25 0.166,-0.25" /><path
       inkscape:connector-curvature="0"
       id="path4427"
       style="fill:none;stroke:#0000ff;stroke-width:2;stroke-linecap:butt;stroke-linejoin:round;stroke-miterlimit:10;stroke-dasharray:none;stroke-opacity:1"
       d="m 102.167,219.083 0.166,-0.166 0.25,-0.25 0.167,-0.167 0.167,-0.167 0.166,-0.166 0.25,-0.25 0.167,-0.167 0.167,-0.167 0.25,-0.25 0.166,-0.166 0.167,-0.167 0.167,-0.167 0.25,-0.25 0.166,-0.166 0.167,-0.167 0.167,-0.167 0.25,-0.25 0.166,-0.166 0.167,-0.167 0.25,-0.25 0.167,-0.167 0.166,-0.166 0.167,-0.167 0.25,-0.25 0.167,-0.167 0.166,-0.166 0.167,-0.167 0.25,-0.25 0.167,-0.167 0.166,-0.166 0.167,-0.167 0.25,-0.25 0.167,-0.167 0.166,-0.166 0.25,-0.25 0.167,-0.167 0.167,-0.167 0.166,-0.166 0.25,-0.25 0.167,-0.167 0.167,-0.167 0.166,-0.166 0.25,-0.25 0.167,-0.167 0.167,-0.167 0.25,-0.25 0.166,-0.166 0.167,-0.167 0.167,-0.167 0.25,-0.25 0.166,-0.166 0.167,-0.167 0.167,-0.167 0.25,-0.25 0.166,-0.166 0.167,-0.167 0.25,-0.25 0.167,-0.167 0.166,-0.166 0.167,-0.167 0.25,-0.25 0.167,-0.167 0.166,-0.166 0.167,-0.167 0.25,-0.25 0.167,-0.167 0.166,-0.166 0.25,-0.25 0.167,-0.167 0.167,-0.167 0.166,-0.166 0.25,-0.25 0.167,-0.167 0.167,-0.167 0.166,-0.166 0.25,-0.25 0.167,-0.167 0.167,-0.167 0.25,-0.25 0.166,-0.166 0.167,-0.167 0.167,-0.167 0.25,-0.25 0.166,-0.166 0.167,-0.167 0.167,-0.167 0.25,-0.25 0.166,-0.166 0.167,-0.167 0.167,-0.167 0.25,-0.25 0.166,-0.166 0.167,-0.167 0.25,-0.25 0.167,-0.167 0.166,-0.166 0.167,-0.167 0.25,-0.25 0.167,-0.167 0.166,-0.166 0.167,-0.167 0.25,-0.25 0.167,-0.167 0.166,-0.166 0.25,-0.25 0.167,-0.167 0.167,-0.167 0.166,-0.166 0.25,-0.25 0.167,-0.167 0.167,-0.167 0.166,-0.166 0.25,-0.25 0.167,-0.167 0.167,-0.167 0.25,-0.25 0.166,-0.166 0.167,-0.167 0.167,-0.167 0.25,-0.25 0.166,-0.166 0.167,-0.167 0.167,-0.167 0.25,-0.25 0.166,-0.166 0.167,-0.167 0.25,-0.25 0.167,-0.167 0.166,-0.166 0.167,-0.167 0.25,-0.25 0.167,-0.167 0.166,-0.166 0.167,-0.167 0.25,-0.25 0.167,-0.167 0.166,-0.166 0.167,-0.167 0.25,-0.25 0.167,-0.167 0.166,-0.166 0.25,-0.25 0.167,-0.167 0.167,-0.167 0.166,-0.166 0.25,-0.25 0.167,-0.167 0.167,-0.167 0.166,-0.166 0.25,-0.25 0.167,-0.167 0.167,-0.167 0.25,-0.25 0.166,-0.166 0.167,-0.167 0.167,-0.167 0.25,-0.25 0.166,-0.166 0.167,-0.167 0.167,-0.167 0.25,-0.25 0.166,-0.166 0.167,-0.167 0.25,-0.25 0.167,-0.167 0.166,-0.166 0.167,-0.167 0.25,-0.25 0.167,-0.167 0.166,-0.166 0.167,-0.167 0.25,-0.25 0.167,-0.167 0.166,-0.166 0.25,-0.25 0.167,-0.167 0.167,-0.167 0.166,-0.166 0.25,-0.25 0.167,-0.167 0.167,-0.167 0.166,-0.166 0.25,-0.25 0.167,-0.167 0.167,-0.167 0.25,-0.25 0.166,-0.166 0.167,-0.167 0.167,-0.167 0.25,-0.25 0.166,-0.166 0.167,-0.167 0.167,-0.167 0.25,-0.25 0.166,-0.166 0.167,-0.167 0.167,-0.167 0.25,-0.25 0.166,-0.166 0.167,-0.167 0.25,-0.25 0.167,-0.167 0.166,-0.166 0.167,-0.167 0.25,-0.25 0.167,-0.167 0.166,-0.166 0.167,-0.167 0.25,-0.25 0.167,-0.167 0.166,-0.166 0.25,-0.25 0.167,-0.167 0.167,-0.167 0.166,-0.166 0.25,-0.25 0.167,-0.167 0.167,-0.167 0.166,-0.166 0.25,-0.25 0.167,-0.167 0.167,-0.167 0.25,-0.25 0.166,-0.166 0.167,-0.167 0.167,-0.167 0.25,-0.25 0.166,-0.166 0.167,-0.167 0.167,-0.167 0.25,-0.25 0.166,-0.166 0.167,-0.167 0.25,-0.25 0.167,-0.167 0.166,-0.166 0.167,-0.167 0.25,-0.25 0.167,-0.167 0.166,-0.166 0.167,-0.167 0.25,-0.25 0.167,-0.167 0.166,-0.166 0.25,-0.25 0.167,-0.167 0.167,-0.167 0.166,-0.166 0.25,-0.25 0.167,-0.167 0.167,-0.167 0.166,-0.166 0.25,-0.25 0.167,-0.167 0.167,-0.167 0.166,-0.166 0.25,-0.25 0.167,-0.167 0.167,-0.167 0.25,-0.25 0.166,-0.166 0.167,-0.167 0.167,-0.167 0.25,-0.25 0.166,-0.166 0.167,-0.167 0.167,-0.167 0.25,-0.25 0.166,-0.166 0.167,-0.167 0.25,-0.25 0.167,-0.167 0.166,-0.166 0.167,-0.167 0.25,-0.25 0.167,-0.167 0.166,-0.166 0.167,-0.167 0.25,-0.25 0.167,-0.167 0.166,-0.166 0.25,-0.25 0.167,-0.167 0.167,-0.167 0.166,-0.166 0.25,-0.25 0.167,-0.167 0.167,-0.167 0.166,-0.166 0.25,-0.25 0.167,-0.167 0.167,-0.167 0.25,-0.25 0.166,-0.166 0.167,-0.167 0.167,-0.167 0.25,-0.25 0.166,-0.166 0.167,-0.167" /><path
       inkscape:connector-curvature="0"
       id="path4429"
       style="fill:none;stroke:#0000ff;stroke-width:2;stroke-linecap:butt;stroke-linejoin:round;stroke-miterlimit:10;stroke-dasharray:none;stroke-opacity:1"
       d="m 63.4168,257.833 0.1664,-0.166 0.1668,-0.167 0.1668,-0.167 0.25,-0.25 0.1664,-0.166 0.1668,-0.167 0.1668,-0.167 0.25,-0.25 0.1664,-0.166 0.1668,-0.167 0.1668,-0.167 0.25,-0.25 0.1664,-0.166 L 66,255.25 66.25,255 l 0.1668,-0.167 0.1664,-0.166 0.1668,-0.167 0.25,-0.25 0.1668,-0.167 0.1664,-0.166 0.1668,-0.167 0.25,-0.25 0.1668,-0.167 0.1664,-0.166 0.25,-0.25 0.1668,-0.167 0.1668,-0.167 0.1664,-0.166 0.25,-0.25 0.1668,-0.167 0.1668,-0.167 0.1664,-0.166 0.25,-0.25 0.1668,-0.167 0.1668,-0.167 0.25,-0.25 0.1664,-0.166 0.1668,-0.167 0.1668,-0.167 0.25,-0.25 0.1664,-0.166 0.1668,-0.167 0.1668,-0.167 0.25,-0.25 0.1664,-0.166 0.1668,-0.167 0.25,-0.25 0.1668,-0.167 0.1664,-0.166 L 73,248.25 73.25,248 l 0.1668,-0.167 0.1664,-0.166 0.1668,-0.167 0.25,-0.25 0.1668,-0.167 0.1664,-0.166 0.1668,-0.167 0.25,-0.25 0.1668,-0.167 0.1664,-0.166 0.25,-0.25 0.1668,-0.167 0.1668,-0.167 0.1664,-0.166 0.25,-0.25 0.1668,-0.167 0.1668,-0.167 0.1664,-0.166 0.25,-0.25 0.1668,-0.167 0.1668,-0.167 0.25,-0.25 0.1664,-0.166 0.1668,-0.167 0.1668,-0.167 0.25,-0.25 0.1664,-0.166 0.1668,-0.167 0.1668,-0.167 0.25,-0.25 0.1664,-0.166 0.1668,-0.167 0.25,-0.25 0.1668,-0.167 0.1664,-0.166 L 80,241.25 80.25,241 l 0.1668,-0.167 0.1664,-0.166 0.1668,-0.167 0.25,-0.25 0.1668,-0.167 0.1664,-0.166 0.25,-0.25 0.1668,-0.167 0.1668,-0.167 0.1664,-0.166 0.25,-0.25 0.1668,-0.167 0.1668,-0.167 0.1664,-0.166 0.25,-0.25 0.1668,-0.167 0.1668,-0.167 0.25,-0.25 0.1664,-0.166 0.1668,-0.167 0.1668,-0.167 0.25,-0.25 0.1664,-0.166 0.1668,-0.167 0.1668,-0.167 0.25,-0.25 0.1664,-0.166 0.1668,-0.167 0.1668,-0.167 0.25,-0.25 0.1664,-0.166 0.1668,-0.167 0.25,-0.25 0.1668,-0.167 0.1664,-0.166 L 87,234.25 87.25,234 l 0.1668,-0.167 0.1664,-0.166 0.1668,-0.167 0.25,-0.25 0.1668,-0.167 0.1664,-0.166 0.25,-0.25 0.1668,-0.167 0.1668,-0.167 0.1664,-0.166 0.25,-0.25 0.1668,-0.167 0.1668,-0.167 0.1664,-0.166 0.25,-0.25 0.1668,-0.167 0.1668,-0.167 0.25,-0.25 0.1664,-0.166 0.1668,-0.167 0.1668,-0.167 0.25,-0.25 0.1664,-0.166 0.1668,-0.167 0.1668,-0.167 0.25,-0.25 0.1664,-0.166 0.1668,-0.167 0.25,-0.25 0.1668,-0.167 0.1664,-0.166 0.1668,-0.167 0.25,-0.25 0.1668,-0.167 0.1664,-0.166 L 94,227.25 94.25,227 l 0.1668,-0.167 0.1664,-0.166 0.25,-0.25 0.1668,-0.167 0.1668,-0.167 0.1664,-0.166 0.25,-0.25 0.1668,-0.167 0.1668,-0.167 0.1664,-0.166 0.25,-0.25 0.1668,-0.167 0.1668,-0.167 0.1664,-0.166 0.25,-0.25 0.1668,-0.167 0.1668,-0.167 0.25,-0.25 0.1664,-0.166 0.1668,-0.167 0.1668,-0.167 0.25,-0.25 0.1664,-0.166 0.1668,-0.167 0.1668,-0.167 0.25,-0.25 0.1664,-0.166 0.1668,-0.167 0.25,-0.25 0.1668,-0.167 0.1662,-0.166 0.167,-0.167 0.25,-0.25 0.167,-0.167 0.166,-0.166 0.167,-0.167 0.25,-0.25 0.167,-0.167 0.166,-0.166 0.25,-0.25 0.167,-0.167 0.167,-0.167" /></g></svg>